G04 (created by PCBNEW-RS274X (2012-01-19 BZR 3256)-stable) date 9/11/2012 11:00:15 PM*
G01*
G70*
G90*
%MOIN*%
G04 Gerber Fmt 3.4, Leading zero omitted, Abs format*
%FSLAX34Y34*%
G04 APERTURE LIST*
%ADD10C,0.001000*%
%ADD11C,0.015000*%
%ADD12R,0.048000X0.048000*%
%ADD13R,0.046000X0.046000*%
%ADD14R,0.016000X0.026000*%
%ADD15R,0.031000X0.051000*%
%ADD16R,0.051000X0.031000*%
%ADD17R,0.017700X0.013700*%
%ADD18R,0.013700X0.017700*%
%ADD19R,0.018000X0.043000*%
%ADD20R,0.037400X0.025600*%
%ADD21R,0.029000X0.029000*%
%ADD22R,0.194900X0.159400*%
%ADD23R,0.017700X0.039300*%
%ADD24R,0.023000X0.018000*%
%ADD25R,0.018000X0.023000*%
%ADD26R,0.011700X0.019600*%
G04 APERTURE END LIST*
G54D10*
G54D11*
X44016Y-40961D02*
X44016Y-54961D01*
X54016Y-40961D02*
X44016Y-40961D01*
X54016Y-54961D02*
X54016Y-40961D01*
X44016Y-54961D02*
X54016Y-54961D01*
G54D12*
X53516Y-44611D03*
X52516Y-44611D03*
X51516Y-44611D03*
X50516Y-44611D03*
X49516Y-44611D03*
G54D13*
X49816Y-41661D03*
X48816Y-41661D03*
X47816Y-41661D03*
X46816Y-41661D03*
X45816Y-41661D03*
X44816Y-41661D03*
X50916Y-41661D03*
X51916Y-41661D03*
X52916Y-41661D03*
G54D14*
X46041Y-46211D03*
X46791Y-46211D03*
X46041Y-45211D03*
X46416Y-46211D03*
X46791Y-45211D03*
G54D15*
X50221Y-46361D03*
X50971Y-46361D03*
X45241Y-45961D03*
X44491Y-45961D03*
G54D16*
X45496Y-48036D03*
X45496Y-47286D03*
G54D15*
X45611Y-50981D03*
X44861Y-50981D03*
G54D17*
X45120Y-49181D03*
X45632Y-49181D03*
G54D18*
X53400Y-48144D03*
X53400Y-48656D03*
X50800Y-48144D03*
X50800Y-48656D03*
X48200Y-48144D03*
X48200Y-48656D03*
X45166Y-44655D03*
X45166Y-45167D03*
G54D19*
X47650Y-49550D03*
X47150Y-49550D03*
X46650Y-49550D03*
X46150Y-49550D03*
X46150Y-47050D03*
X46650Y-47050D03*
X47150Y-47050D03*
X47650Y-47050D03*
X50250Y-49550D03*
X49750Y-49550D03*
X49250Y-49550D03*
X48750Y-49550D03*
X48750Y-47050D03*
X49250Y-47050D03*
X49750Y-47050D03*
X50250Y-47050D03*
X52850Y-49550D03*
X52350Y-49550D03*
X51850Y-49550D03*
X51350Y-49550D03*
X51350Y-47050D03*
X51850Y-47050D03*
X52350Y-47050D03*
X52850Y-47050D03*
G54D20*
X45616Y-49626D03*
X45616Y-50001D03*
X45616Y-50376D03*
X44616Y-50376D03*
X44616Y-50001D03*
X44616Y-49626D03*
G54D21*
X49316Y-42861D03*
X49316Y-42261D03*
X48616Y-42861D03*
X48616Y-42261D03*
G54D22*
X47400Y-52200D03*
G54D23*
X46652Y-53598D03*
X47144Y-53598D03*
X47656Y-53598D03*
X48148Y-53598D03*
G54D22*
X50000Y-52200D03*
G54D23*
X49252Y-53598D03*
X49744Y-53598D03*
X50256Y-53598D03*
X50748Y-53598D03*
G54D22*
X52600Y-52200D03*
G54D23*
X51852Y-53598D03*
X52344Y-53598D03*
X52856Y-53598D03*
X53348Y-53598D03*
G54D24*
X50800Y-47500D03*
X50800Y-47100D03*
X44456Y-46901D03*
X44456Y-46501D03*
X44896Y-47241D03*
X44896Y-46841D03*
G54D25*
X48116Y-44311D03*
X48516Y-44311D03*
G54D24*
X49316Y-43211D03*
X49316Y-43611D03*
X48916Y-43211D03*
X48916Y-43611D03*
G54D25*
X48116Y-44711D03*
X48516Y-44711D03*
G54D24*
X53400Y-47500D03*
X53400Y-47100D03*
X48200Y-47500D03*
X48200Y-47100D03*
X53400Y-50300D03*
X53400Y-49900D03*
X53366Y-54011D03*
X53366Y-54411D03*
X50800Y-50300D03*
X50800Y-49900D03*
X50766Y-54011D03*
X50766Y-54411D03*
X48200Y-50300D03*
X48200Y-49900D03*
X48166Y-54011D03*
X48166Y-54411D03*
G54D25*
X46016Y-44711D03*
X46416Y-44711D03*
X47200Y-50300D03*
X46800Y-50300D03*
X49800Y-50300D03*
X49400Y-50300D03*
X52400Y-50300D03*
X52000Y-50300D03*
G54D26*
X45159Y-48641D03*
X45513Y-48641D03*
M02*
