M48
;DRILL file {Pcbnew (2012-01-19 BZR 3256)-stable} date 9/11/2012 11:00:59 PM
;FORMAT={-:-/ absolute / inch / decimal}
FMAT,2
INCH,TZ
T1C0.013
%
G90
G05
M72
T1
X4.457Y4.326
X4.462Y4.511
X4.507Y5.001
X4.567Y4.681
X4.572Y4.471
X4.642Y4.516
X4.642Y4.661
X4.652Y4.311
X4.657Y5.396
X4.657Y5.426
X4.657Y5.456
X4.665Y4.870
X4.687Y5.396
X4.687Y5.426
X4.687Y5.456
X4.717Y5.396
X4.717Y5.426
X4.717Y5.456
X4.722Y4.481
X4.727Y4.446
X4.730Y4.910
X4.737Y4.606
X4.747Y5.396
X4.747Y5.426
X4.747Y5.456
X4.762Y4.321
X4.777Y5.396
X4.777Y5.426
X4.777Y5.456
X4.817Y4.676
X4.817Y5.466
X4.820Y5.060
X4.837Y4.361
X4.877Y4.516
X4.882Y4.401
X4.897Y4.216
X4.917Y5.396
X4.917Y5.426
X4.917Y5.456
X4.922Y4.576
X4.925Y4.870
X4.932Y4.381
X4.942Y4.706
X4.947Y5.396
X4.947Y5.426
X4.947Y5.456
X4.967Y4.676
X4.977Y4.236
X4.977Y4.546
X4.977Y5.396
X4.977Y5.426
X4.977Y5.456
X4.982Y4.431
X4.990Y4.910
X5.007Y4.346
X5.007Y4.571
X5.007Y5.396
X5.007Y5.426
X5.007Y5.456
X5.017Y4.486
X5.037Y5.396
X5.037Y5.426
X5.037Y5.456
X5.042Y4.126
X5.057Y4.511
X5.067Y4.571
X5.077Y5.466
X5.080Y5.060
X5.087Y4.686
X5.127Y5.366
X5.167Y4.216
X5.172Y4.662
X5.177Y5.396
X5.177Y5.426
X5.177Y5.456
X5.185Y4.870
X5.192Y4.611
X5.207Y5.396
X5.207Y5.426
X5.207Y5.456
X5.222Y4.431
X5.237Y5.396
X5.237Y5.426
X5.237Y5.456
X5.240Y4.900
X5.262Y4.516
X5.267Y5.396
X5.267Y5.426
X5.267Y5.456
X5.297Y5.396
X5.297Y5.426
X5.297Y5.456
X5.307Y4.236
X5.307Y4.326
X5.322Y4.371
X5.340Y5.060
X5.342Y4.676
X5.345Y4.145
X5.360Y4.190
X5.362Y5.466
X5.370Y4.280
T0
M30
