G04 (created by PCBNEW-RS274X (2012-01-19 BZR 3256)-stable) date 9/11/2012 4:45:41 AM*
G01*
G70*
G90*
%MOIN*%
G04 Gerber Fmt 3.4, Leading zero omitted, Abs format*
%FSLAX34Y34*%
G04 APERTURE LIST*
%ADD10C,0.001000*%
%ADD11C,0.010000*%
%ADD12C,0.015000*%
%ADD13C,0.007900*%
%ADD14C,0.005000*%
%ADD15C,0.007500*%
%ADD16R,0.035700X0.073100*%
%ADD17R,0.102700X0.083000*%
%ADD18R,0.094800X0.094800*%
%ADD19R,0.022000X0.047000*%
%ADD20O,0.013800X0.057100*%
%ADD21O,0.057100X0.013800*%
%ADD22R,0.198900X0.163400*%
%ADD23R,0.021700X0.043300*%
%ADD24R,0.027000X0.022000*%
%ADD25R,0.022000X0.027000*%
%ADD26R,0.067200X0.059400*%
G04 APERTURE END LIST*
G54D10*
G54D11*
X44324Y-52648D02*
X44629Y-52648D01*
X44953Y-52590D02*
X45010Y-52609D01*
X45029Y-52628D01*
X45048Y-52667D01*
X45048Y-52724D01*
X45029Y-52762D01*
X45010Y-52781D01*
X44972Y-52800D01*
X44819Y-52800D01*
X44819Y-52400D01*
X44953Y-52400D01*
X44991Y-52419D01*
X45010Y-52438D01*
X45029Y-52476D01*
X45029Y-52514D01*
X45010Y-52552D01*
X44991Y-52571D01*
X44953Y-52590D01*
X44819Y-52590D01*
X45200Y-52686D02*
X45391Y-52686D01*
X45162Y-52800D02*
X45295Y-52400D01*
X45429Y-52800D01*
X45505Y-52400D02*
X45734Y-52400D01*
X45619Y-52800D02*
X45619Y-52400D01*
G54D12*
X44016Y-40961D02*
X44016Y-54961D01*
X54016Y-40961D02*
X44016Y-40961D01*
X54016Y-54961D02*
X54016Y-40961D01*
X44016Y-54961D02*
X54016Y-54961D01*
G54D13*
X44441Y-40990D02*
X47591Y-40990D01*
G54D14*
X46200Y-48900D02*
X44200Y-48900D01*
X44200Y-48900D02*
X44200Y-50700D01*
X44200Y-50700D02*
X46200Y-50700D01*
X46200Y-50700D02*
X46200Y-48900D01*
X46200Y-49500D02*
X46000Y-49500D01*
X46000Y-49500D02*
X46000Y-50000D01*
X46000Y-50000D02*
X46200Y-50000D01*
G54D13*
X48088Y-43135D02*
X47990Y-43233D01*
X48186Y-43135D02*
X47990Y-43331D01*
X50746Y-43135D02*
X50942Y-43135D01*
X50942Y-43135D02*
X50942Y-43331D01*
X50746Y-46087D02*
X50942Y-46087D01*
X50942Y-46087D02*
X50942Y-45891D01*
X47990Y-45891D02*
X47990Y-46087D01*
X47990Y-46087D02*
X48186Y-46087D01*
X47990Y-43331D02*
X47990Y-43135D01*
X47990Y-43135D02*
X48186Y-43135D01*
G54D12*
X48483Y-53287D02*
X48483Y-50925D01*
X46317Y-53287D02*
X46317Y-50925D01*
X51083Y-53287D02*
X51083Y-50925D01*
X48917Y-53287D02*
X48917Y-50925D01*
X53683Y-53287D02*
X53683Y-50925D01*
X51517Y-53287D02*
X51517Y-50925D01*
G54D15*
X45646Y-47581D02*
X45646Y-48141D01*
X45286Y-47581D02*
X45286Y-48141D01*
X45836Y-48141D02*
X45836Y-47581D01*
X46196Y-48141D02*
X46196Y-47581D01*
X45096Y-47891D02*
X44536Y-47891D01*
X45096Y-47531D02*
X44536Y-47531D01*
X52320Y-43070D02*
X52880Y-43070D01*
X52320Y-43430D02*
X52880Y-43430D01*
X52880Y-43880D02*
X52320Y-43880D01*
X52880Y-43520D02*
X52320Y-43520D01*
X52320Y-42170D02*
X52880Y-42170D01*
X52320Y-42530D02*
X52880Y-42530D01*
X52880Y-42980D02*
X52320Y-42980D01*
X52880Y-42620D02*
X52320Y-42620D01*
X52320Y-41270D02*
X52880Y-41270D01*
X52320Y-41630D02*
X52880Y-41630D01*
X52880Y-42080D02*
X52320Y-42080D01*
X52880Y-41720D02*
X52320Y-41720D01*
X51136Y-41131D02*
X51696Y-41131D01*
X51136Y-41491D02*
X51696Y-41491D01*
X51696Y-41941D02*
X51136Y-41941D01*
X51696Y-41581D02*
X51136Y-41581D01*
X51186Y-45931D02*
X51746Y-45931D01*
X51186Y-46291D02*
X51746Y-46291D01*
X52436Y-44891D02*
X52436Y-44331D01*
X52796Y-44891D02*
X52796Y-44331D01*
X47246Y-43531D02*
X47246Y-44091D01*
X46886Y-43531D02*
X46886Y-44091D01*
X47896Y-46281D02*
X47896Y-46841D01*
X47536Y-46281D02*
X47536Y-46841D01*
X46746Y-43791D02*
X46186Y-43791D01*
X46746Y-43431D02*
X46186Y-43431D01*
X48536Y-41691D02*
X48536Y-41131D01*
X48896Y-41691D02*
X48896Y-41131D01*
X50846Y-41991D02*
X50286Y-41991D01*
X50846Y-41631D02*
X50286Y-41631D01*
G54D13*
X49010Y-41535D02*
X49010Y-41575D01*
X49640Y-42008D02*
X49522Y-42008D01*
X50152Y-41535D02*
X50152Y-41575D01*
X49640Y-41102D02*
X49522Y-41102D01*
G54D10*
X44388Y-42255D02*
X44388Y-42875D01*
X45204Y-42875D01*
X45204Y-42255D01*
X44388Y-42255D01*
X46828Y-42255D02*
X46828Y-42875D01*
X47644Y-42875D01*
X47644Y-42255D01*
X46828Y-42255D01*
X45175Y-41192D02*
X45175Y-41930D01*
X45913Y-41930D01*
X45913Y-41192D01*
X45175Y-41192D01*
X46119Y-41192D02*
X46119Y-41930D01*
X46857Y-41930D01*
X46857Y-41192D01*
X46119Y-41192D01*
X47222Y-41192D02*
X47222Y-41930D01*
X47960Y-41930D01*
X47960Y-41192D01*
X47222Y-41192D01*
X44072Y-41192D02*
X44072Y-41930D01*
X44810Y-41930D01*
X44810Y-41192D01*
X44072Y-41192D01*
G54D13*
X45548Y-43338D02*
X45548Y-43023D01*
X45428Y-43023D01*
X45398Y-43038D01*
X45383Y-43053D01*
X45368Y-43083D01*
X45368Y-43128D01*
X45383Y-43158D01*
X45398Y-43173D01*
X45428Y-43188D01*
X45548Y-43188D01*
X45263Y-43023D02*
X45068Y-43023D01*
X45173Y-43143D01*
X45128Y-43143D01*
X45098Y-43158D01*
X45083Y-43173D01*
X45068Y-43203D01*
X45068Y-43278D01*
X45083Y-43308D01*
X45098Y-43323D01*
X45128Y-43338D01*
X45218Y-43338D01*
X45248Y-43323D01*
X45263Y-43308D01*
G54D15*
X46745Y-49582D02*
X46745Y-49825D01*
X46730Y-49854D01*
X46716Y-49868D01*
X46687Y-49882D01*
X46630Y-49882D01*
X46602Y-49868D01*
X46587Y-49854D01*
X46573Y-49825D01*
X46573Y-49582D01*
X46388Y-49711D02*
X46416Y-49697D01*
X46431Y-49682D01*
X46445Y-49654D01*
X46445Y-49640D01*
X46431Y-49611D01*
X46416Y-49597D01*
X46388Y-49582D01*
X46331Y-49582D01*
X46302Y-49597D01*
X46288Y-49611D01*
X46273Y-49640D01*
X46273Y-49654D01*
X46288Y-49682D01*
X46302Y-49697D01*
X46331Y-49711D01*
X46388Y-49711D01*
X46416Y-49725D01*
X46431Y-49740D01*
X46445Y-49768D01*
X46445Y-49825D01*
X46431Y-49854D01*
X46416Y-49868D01*
X46388Y-49882D01*
X46331Y-49882D01*
X46302Y-49868D01*
X46288Y-49854D01*
X46273Y-49825D01*
X46273Y-49768D01*
X46288Y-49740D01*
X46302Y-49725D01*
X46331Y-49711D01*
G54D13*
X47416Y-45126D02*
X47416Y-45445D01*
X47397Y-45483D01*
X47379Y-45502D01*
X47341Y-45520D01*
X47266Y-45520D01*
X47229Y-45502D01*
X47210Y-45483D01*
X47191Y-45445D01*
X47191Y-45126D01*
X46834Y-45258D02*
X46834Y-45520D01*
X46928Y-45108D02*
X47022Y-45389D01*
X46778Y-45389D01*
G54D15*
X48195Y-53711D02*
X48223Y-53697D01*
X48252Y-53668D01*
X48295Y-53625D01*
X48323Y-53611D01*
X48352Y-53611D01*
X48337Y-53682D02*
X48366Y-53668D01*
X48395Y-53640D01*
X48409Y-53582D01*
X48409Y-53482D01*
X48395Y-53425D01*
X48366Y-53397D01*
X48337Y-53382D01*
X48280Y-53382D01*
X48252Y-53397D01*
X48223Y-53425D01*
X48209Y-53482D01*
X48209Y-53582D01*
X48223Y-53640D01*
X48252Y-53668D01*
X48280Y-53682D01*
X48337Y-53682D01*
X48095Y-53411D02*
X48081Y-53397D01*
X48052Y-53382D01*
X47981Y-53382D01*
X47952Y-53397D01*
X47938Y-53411D01*
X47923Y-53440D01*
X47923Y-53468D01*
X47938Y-53511D01*
X48109Y-53682D01*
X47923Y-53682D01*
X50795Y-53711D02*
X50823Y-53697D01*
X50852Y-53668D01*
X50895Y-53625D01*
X50923Y-53611D01*
X50952Y-53611D01*
X50937Y-53682D02*
X50966Y-53668D01*
X50995Y-53640D01*
X51009Y-53582D01*
X51009Y-53482D01*
X50995Y-53425D01*
X50966Y-53397D01*
X50937Y-53382D01*
X50880Y-53382D01*
X50852Y-53397D01*
X50823Y-53425D01*
X50809Y-53482D01*
X50809Y-53582D01*
X50823Y-53640D01*
X50852Y-53668D01*
X50880Y-53682D01*
X50937Y-53682D01*
X50552Y-53482D02*
X50552Y-53682D01*
X50623Y-53368D02*
X50695Y-53582D01*
X50509Y-53582D01*
X53445Y-53711D02*
X53473Y-53697D01*
X53502Y-53668D01*
X53545Y-53625D01*
X53573Y-53611D01*
X53602Y-53611D01*
X53587Y-53682D02*
X53616Y-53668D01*
X53645Y-53640D01*
X53659Y-53582D01*
X53659Y-53482D01*
X53645Y-53425D01*
X53616Y-53397D01*
X53587Y-53382D01*
X53530Y-53382D01*
X53502Y-53397D01*
X53473Y-53425D01*
X53459Y-53482D01*
X53459Y-53582D01*
X53473Y-53640D01*
X53502Y-53668D01*
X53530Y-53682D01*
X53587Y-53682D01*
X53202Y-53382D02*
X53259Y-53382D01*
X53288Y-53397D01*
X53302Y-53411D01*
X53331Y-53454D01*
X53345Y-53511D01*
X53345Y-53625D01*
X53331Y-53654D01*
X53316Y-53668D01*
X53288Y-53682D01*
X53231Y-53682D01*
X53202Y-53668D01*
X53188Y-53654D01*
X53173Y-53625D01*
X53173Y-53554D01*
X53188Y-53525D01*
X53202Y-53511D01*
X53231Y-53497D01*
X53288Y-53497D01*
X53316Y-53511D01*
X53331Y-53525D01*
X53345Y-53554D01*
X45809Y-47482D02*
X45909Y-47340D01*
X45981Y-47482D02*
X45981Y-47182D01*
X45866Y-47182D01*
X45838Y-47197D01*
X45823Y-47211D01*
X45809Y-47240D01*
X45809Y-47282D01*
X45823Y-47311D01*
X45838Y-47325D01*
X45866Y-47340D01*
X45981Y-47340D01*
X45695Y-47211D02*
X45681Y-47197D01*
X45652Y-47182D01*
X45581Y-47182D01*
X45552Y-47197D01*
X45538Y-47211D01*
X45523Y-47240D01*
X45523Y-47268D01*
X45538Y-47311D01*
X45709Y-47482D01*
X45523Y-47482D01*
X45423Y-47182D02*
X45237Y-47182D01*
X45337Y-47297D01*
X45295Y-47297D01*
X45266Y-47311D01*
X45252Y-47325D01*
X45237Y-47354D01*
X45237Y-47425D01*
X45252Y-47454D01*
X45266Y-47468D01*
X45295Y-47482D01*
X45380Y-47482D01*
X45409Y-47468D01*
X45423Y-47454D01*
X46859Y-47982D02*
X46959Y-47840D01*
X47031Y-47982D02*
X47031Y-47682D01*
X46916Y-47682D01*
X46888Y-47697D01*
X46873Y-47711D01*
X46859Y-47740D01*
X46859Y-47782D01*
X46873Y-47811D01*
X46888Y-47825D01*
X46916Y-47840D01*
X47031Y-47840D01*
X46573Y-47982D02*
X46745Y-47982D01*
X46659Y-47982D02*
X46659Y-47682D01*
X46688Y-47725D01*
X46716Y-47754D01*
X46745Y-47768D01*
X46316Y-47682D02*
X46373Y-47682D01*
X46402Y-47697D01*
X46416Y-47711D01*
X46445Y-47754D01*
X46459Y-47811D01*
X46459Y-47925D01*
X46445Y-47954D01*
X46430Y-47968D01*
X46402Y-47982D01*
X46345Y-47982D01*
X46316Y-47968D01*
X46302Y-47954D01*
X46287Y-47925D01*
X46287Y-47854D01*
X46302Y-47825D01*
X46316Y-47811D01*
X46345Y-47797D01*
X46402Y-47797D01*
X46430Y-47811D01*
X46445Y-47825D01*
X46459Y-47854D01*
X44909Y-47404D02*
X44923Y-47418D01*
X44966Y-47432D01*
X44995Y-47432D01*
X45038Y-47418D01*
X45066Y-47390D01*
X45081Y-47361D01*
X45095Y-47304D01*
X45095Y-47261D01*
X45081Y-47204D01*
X45066Y-47175D01*
X45038Y-47147D01*
X44995Y-47132D01*
X44966Y-47132D01*
X44923Y-47147D01*
X44909Y-47161D01*
X44623Y-47432D02*
X44795Y-47432D01*
X44709Y-47432D02*
X44709Y-47132D01*
X44738Y-47175D01*
X44766Y-47204D01*
X44795Y-47218D01*
X44337Y-47432D02*
X44509Y-47432D01*
X44423Y-47432D02*
X44423Y-47132D01*
X44452Y-47175D01*
X44480Y-47204D01*
X44509Y-47218D01*
X52066Y-43382D02*
X52166Y-43240D01*
X52238Y-43382D02*
X52238Y-43082D01*
X52123Y-43082D01*
X52095Y-43097D01*
X52080Y-43111D01*
X52066Y-43140D01*
X52066Y-43182D01*
X52080Y-43211D01*
X52095Y-43225D01*
X52123Y-43240D01*
X52238Y-43240D01*
X51923Y-43382D02*
X51866Y-43382D01*
X51838Y-43368D01*
X51823Y-43354D01*
X51795Y-43311D01*
X51780Y-43254D01*
X51780Y-43140D01*
X51795Y-43111D01*
X51809Y-43097D01*
X51838Y-43082D01*
X51895Y-43082D01*
X51923Y-43097D01*
X51938Y-43111D01*
X51952Y-43140D01*
X51952Y-43211D01*
X51938Y-43240D01*
X51923Y-43254D01*
X51895Y-43268D01*
X51838Y-43268D01*
X51809Y-43254D01*
X51795Y-43240D01*
X51780Y-43211D01*
X52066Y-43832D02*
X52166Y-43690D01*
X52238Y-43832D02*
X52238Y-43532D01*
X52123Y-43532D01*
X52095Y-43547D01*
X52080Y-43561D01*
X52066Y-43590D01*
X52066Y-43632D01*
X52080Y-43661D01*
X52095Y-43675D01*
X52123Y-43690D01*
X52238Y-43690D01*
X51895Y-43661D02*
X51923Y-43647D01*
X51938Y-43632D01*
X51952Y-43604D01*
X51952Y-43590D01*
X51938Y-43561D01*
X51923Y-43547D01*
X51895Y-43532D01*
X51838Y-43532D01*
X51809Y-43547D01*
X51795Y-43561D01*
X51780Y-43590D01*
X51780Y-43604D01*
X51795Y-43632D01*
X51809Y-43647D01*
X51838Y-43661D01*
X51895Y-43661D01*
X51923Y-43675D01*
X51938Y-43690D01*
X51952Y-43718D01*
X51952Y-43775D01*
X51938Y-43804D01*
X51923Y-43818D01*
X51895Y-43832D01*
X51838Y-43832D01*
X51809Y-43818D01*
X51795Y-43804D01*
X51780Y-43775D01*
X51780Y-43718D01*
X51795Y-43690D01*
X51809Y-43675D01*
X51838Y-43661D01*
X52066Y-42532D02*
X52166Y-42390D01*
X52238Y-42532D02*
X52238Y-42232D01*
X52123Y-42232D01*
X52095Y-42247D01*
X52080Y-42261D01*
X52066Y-42290D01*
X52066Y-42332D01*
X52080Y-42361D01*
X52095Y-42375D01*
X52123Y-42390D01*
X52238Y-42390D01*
X51966Y-42232D02*
X51766Y-42232D01*
X51895Y-42532D01*
X52066Y-42932D02*
X52166Y-42790D01*
X52238Y-42932D02*
X52238Y-42632D01*
X52123Y-42632D01*
X52095Y-42647D01*
X52080Y-42661D01*
X52066Y-42690D01*
X52066Y-42732D01*
X52080Y-42761D01*
X52095Y-42775D01*
X52123Y-42790D01*
X52238Y-42790D01*
X51809Y-42632D02*
X51866Y-42632D01*
X51895Y-42647D01*
X51909Y-42661D01*
X51938Y-42704D01*
X51952Y-42761D01*
X51952Y-42875D01*
X51938Y-42904D01*
X51923Y-42918D01*
X51895Y-42932D01*
X51838Y-42932D01*
X51809Y-42918D01*
X51795Y-42904D01*
X51780Y-42875D01*
X51780Y-42804D01*
X51795Y-42775D01*
X51809Y-42761D01*
X51838Y-42747D01*
X51895Y-42747D01*
X51923Y-42761D01*
X51938Y-42775D01*
X51952Y-42804D01*
X52016Y-41582D02*
X52116Y-41440D01*
X52188Y-41582D02*
X52188Y-41282D01*
X52073Y-41282D01*
X52045Y-41297D01*
X52030Y-41311D01*
X52016Y-41340D01*
X52016Y-41382D01*
X52030Y-41411D01*
X52045Y-41425D01*
X52073Y-41440D01*
X52188Y-41440D01*
X51745Y-41282D02*
X51888Y-41282D01*
X51902Y-41425D01*
X51888Y-41411D01*
X51859Y-41397D01*
X51788Y-41397D01*
X51759Y-41411D01*
X51745Y-41425D01*
X51730Y-41454D01*
X51730Y-41525D01*
X51745Y-41554D01*
X51759Y-41568D01*
X51788Y-41582D01*
X51859Y-41582D01*
X51888Y-41568D01*
X51902Y-41554D01*
X52066Y-42032D02*
X52166Y-41890D01*
X52238Y-42032D02*
X52238Y-41732D01*
X52123Y-41732D01*
X52095Y-41747D01*
X52080Y-41761D01*
X52066Y-41790D01*
X52066Y-41832D01*
X52080Y-41861D01*
X52095Y-41875D01*
X52123Y-41890D01*
X52238Y-41890D01*
X51809Y-41832D02*
X51809Y-42032D01*
X51880Y-41718D02*
X51952Y-41932D01*
X51766Y-41932D01*
X50866Y-41482D02*
X50966Y-41340D01*
X51038Y-41482D02*
X51038Y-41182D01*
X50923Y-41182D01*
X50895Y-41197D01*
X50880Y-41211D01*
X50866Y-41240D01*
X50866Y-41282D01*
X50880Y-41311D01*
X50895Y-41325D01*
X50923Y-41340D01*
X51038Y-41340D01*
X50766Y-41182D02*
X50580Y-41182D01*
X50680Y-41297D01*
X50638Y-41297D01*
X50609Y-41311D01*
X50595Y-41325D01*
X50580Y-41354D01*
X50580Y-41425D01*
X50595Y-41454D01*
X50609Y-41468D01*
X50638Y-41482D01*
X50723Y-41482D01*
X50752Y-41468D01*
X50766Y-41454D01*
X51366Y-42332D02*
X51466Y-42190D01*
X51538Y-42332D02*
X51538Y-42032D01*
X51423Y-42032D01*
X51395Y-42047D01*
X51380Y-42061D01*
X51366Y-42090D01*
X51366Y-42132D01*
X51380Y-42161D01*
X51395Y-42175D01*
X51423Y-42190D01*
X51538Y-42190D01*
X51252Y-42061D02*
X51238Y-42047D01*
X51209Y-42032D01*
X51138Y-42032D01*
X51109Y-42047D01*
X51095Y-42061D01*
X51080Y-42090D01*
X51080Y-42118D01*
X51095Y-42161D01*
X51266Y-42332D01*
X51080Y-42332D01*
X51366Y-46654D02*
X51380Y-46668D01*
X51423Y-46682D01*
X51452Y-46682D01*
X51495Y-46668D01*
X51523Y-46640D01*
X51538Y-46611D01*
X51552Y-46554D01*
X51552Y-46511D01*
X51538Y-46454D01*
X51523Y-46425D01*
X51495Y-46397D01*
X51452Y-46382D01*
X51423Y-46382D01*
X51380Y-46397D01*
X51366Y-46411D01*
X51266Y-46382D02*
X51066Y-46382D01*
X51195Y-46682D01*
X53089Y-44561D02*
X53103Y-44547D01*
X53117Y-44504D01*
X53117Y-44475D01*
X53103Y-44432D01*
X53075Y-44404D01*
X53046Y-44389D01*
X52989Y-44375D01*
X52946Y-44375D01*
X52889Y-44389D01*
X52860Y-44404D01*
X52832Y-44432D01*
X52817Y-44475D01*
X52817Y-44504D01*
X52832Y-44547D01*
X52846Y-44561D01*
X52817Y-44818D02*
X52817Y-44761D01*
X52832Y-44732D01*
X52846Y-44718D01*
X52889Y-44689D01*
X52946Y-44675D01*
X53060Y-44675D01*
X53089Y-44689D01*
X53103Y-44704D01*
X53117Y-44732D01*
X53117Y-44789D01*
X53103Y-44818D01*
X53089Y-44832D01*
X53060Y-44847D01*
X52989Y-44847D01*
X52960Y-44832D01*
X52946Y-44818D01*
X52932Y-44789D01*
X52932Y-44732D01*
X52946Y-44704D01*
X52960Y-44689D01*
X52989Y-44675D01*
X47116Y-43404D02*
X47130Y-43418D01*
X47173Y-43432D01*
X47202Y-43432D01*
X47245Y-43418D01*
X47273Y-43390D01*
X47288Y-43361D01*
X47302Y-43304D01*
X47302Y-43261D01*
X47288Y-43204D01*
X47273Y-43175D01*
X47245Y-43147D01*
X47202Y-43132D01*
X47173Y-43132D01*
X47130Y-43147D01*
X47116Y-43161D01*
X46845Y-43132D02*
X46988Y-43132D01*
X47002Y-43275D01*
X46988Y-43261D01*
X46959Y-43247D01*
X46888Y-43247D01*
X46859Y-43261D01*
X46845Y-43275D01*
X46830Y-43304D01*
X46830Y-43375D01*
X46845Y-43404D01*
X46859Y-43418D01*
X46888Y-43432D01*
X46959Y-43432D01*
X46988Y-43418D01*
X47002Y-43404D01*
X47266Y-46654D02*
X47280Y-46668D01*
X47323Y-46682D01*
X47352Y-46682D01*
X47395Y-46668D01*
X47423Y-46640D01*
X47438Y-46611D01*
X47452Y-46554D01*
X47452Y-46511D01*
X47438Y-46454D01*
X47423Y-46425D01*
X47395Y-46397D01*
X47352Y-46382D01*
X47323Y-46382D01*
X47280Y-46397D01*
X47266Y-46411D01*
X47009Y-46482D02*
X47009Y-46682D01*
X47080Y-46368D02*
X47152Y-46582D01*
X46966Y-46582D01*
X46559Y-44182D02*
X46659Y-44040D01*
X46731Y-44182D02*
X46731Y-43882D01*
X46616Y-43882D01*
X46588Y-43897D01*
X46573Y-43911D01*
X46559Y-43940D01*
X46559Y-43982D01*
X46573Y-44011D01*
X46588Y-44025D01*
X46616Y-44040D01*
X46731Y-44040D01*
X46273Y-44182D02*
X46445Y-44182D01*
X46359Y-44182D02*
X46359Y-43882D01*
X46388Y-43925D01*
X46416Y-43954D01*
X46445Y-43968D01*
X46087Y-43882D02*
X46059Y-43882D01*
X46030Y-43897D01*
X46016Y-43911D01*
X46002Y-43940D01*
X45987Y-43997D01*
X45987Y-44068D01*
X46002Y-44125D01*
X46016Y-44154D01*
X46030Y-44168D01*
X46059Y-44182D01*
X46087Y-44182D01*
X46116Y-44168D01*
X46130Y-44154D01*
X46145Y-44125D01*
X46159Y-44068D01*
X46159Y-43997D01*
X46145Y-43940D01*
X46130Y-43911D01*
X46116Y-43897D01*
X46087Y-43882D01*
X48709Y-42054D02*
X48723Y-42068D01*
X48766Y-42082D01*
X48795Y-42082D01*
X48838Y-42068D01*
X48866Y-42040D01*
X48881Y-42011D01*
X48895Y-41954D01*
X48895Y-41911D01*
X48881Y-41854D01*
X48866Y-41825D01*
X48838Y-41797D01*
X48795Y-41782D01*
X48766Y-41782D01*
X48723Y-41797D01*
X48709Y-41811D01*
X48423Y-42082D02*
X48595Y-42082D01*
X48509Y-42082D02*
X48509Y-41782D01*
X48538Y-41825D01*
X48566Y-41854D01*
X48595Y-41868D01*
X48252Y-41911D02*
X48280Y-41897D01*
X48295Y-41882D01*
X48309Y-41854D01*
X48309Y-41840D01*
X48295Y-41811D01*
X48280Y-41797D01*
X48252Y-41782D01*
X48195Y-41782D01*
X48166Y-41797D01*
X48152Y-41811D01*
X48137Y-41840D01*
X48137Y-41854D01*
X48152Y-41882D01*
X48166Y-41897D01*
X48195Y-41911D01*
X48252Y-41911D01*
X48280Y-41925D01*
X48295Y-41940D01*
X48309Y-41968D01*
X48309Y-42025D01*
X48295Y-42054D01*
X48280Y-42068D01*
X48252Y-42082D01*
X48195Y-42082D01*
X48166Y-42068D01*
X48152Y-42054D01*
X48137Y-42025D01*
X48137Y-41968D01*
X48152Y-41940D01*
X48166Y-41925D01*
X48195Y-41911D01*
X50610Y-42353D02*
X50624Y-42367D01*
X50667Y-42381D01*
X50696Y-42381D01*
X50739Y-42367D01*
X50767Y-42339D01*
X50782Y-42310D01*
X50796Y-42253D01*
X50796Y-42210D01*
X50782Y-42153D01*
X50767Y-42124D01*
X50739Y-42096D01*
X50696Y-42081D01*
X50667Y-42081D01*
X50624Y-42096D01*
X50610Y-42110D01*
X50324Y-42381D02*
X50496Y-42381D01*
X50410Y-42381D02*
X50410Y-42081D01*
X50439Y-42124D01*
X50467Y-42153D01*
X50496Y-42167D01*
X50181Y-42381D02*
X50124Y-42381D01*
X50096Y-42367D01*
X50081Y-42353D01*
X50053Y-42310D01*
X50038Y-42253D01*
X50038Y-42139D01*
X50053Y-42110D01*
X50067Y-42096D01*
X50096Y-42081D01*
X50153Y-42081D01*
X50181Y-42096D01*
X50196Y-42110D01*
X50210Y-42139D01*
X50210Y-42210D01*
X50196Y-42239D01*
X50181Y-42253D01*
X50153Y-42267D01*
X50096Y-42267D01*
X50067Y-42253D01*
X50053Y-42239D01*
X50038Y-42210D01*
G54D13*
X49571Y-42073D02*
X49361Y-42388D01*
X49361Y-42073D02*
X49571Y-42388D01*
X49076Y-42388D02*
X49256Y-42388D01*
X49166Y-42388D02*
X49166Y-42073D01*
X49196Y-42118D01*
X49226Y-42148D01*
X49256Y-42163D01*
%LPC*%
G54D16*
X45504Y-42624D03*
X45760Y-42624D03*
X46016Y-42624D03*
X46272Y-42624D03*
X46528Y-42624D03*
G54D17*
X44796Y-42565D03*
X47236Y-42565D03*
G54D18*
X45544Y-41561D03*
X46488Y-41561D03*
X47591Y-41561D03*
X44441Y-41561D03*
G54D19*
X45950Y-48550D03*
X45450Y-48550D03*
X44950Y-48550D03*
X44450Y-48550D03*
X44450Y-51050D03*
X44950Y-51050D03*
X45450Y-51050D03*
X45950Y-51050D03*
G54D20*
X48383Y-42938D03*
X48580Y-42938D03*
X48777Y-42938D03*
X48974Y-42938D03*
X49171Y-42938D03*
X49368Y-42938D03*
X49564Y-42938D03*
X49761Y-42938D03*
X49958Y-42938D03*
X50155Y-42938D03*
X50352Y-42938D03*
X50549Y-42938D03*
G54D21*
X51139Y-43528D03*
X51139Y-43725D03*
X51139Y-43922D03*
X51139Y-44119D03*
X51139Y-44316D03*
X51139Y-44513D03*
X51139Y-44709D03*
X51139Y-44906D03*
X51139Y-45103D03*
X51139Y-45300D03*
X51139Y-45497D03*
X51139Y-45694D03*
G54D20*
X50549Y-46284D03*
X50352Y-46284D03*
X50155Y-46284D03*
X49958Y-46284D03*
X49761Y-46284D03*
X49564Y-46284D03*
X49368Y-46284D03*
X49171Y-46284D03*
X48974Y-46284D03*
X48777Y-46284D03*
X48580Y-46284D03*
X48383Y-46284D03*
G54D21*
X47793Y-45694D03*
X47793Y-45497D03*
X47793Y-45300D03*
X47793Y-45103D03*
X47793Y-44906D03*
X47793Y-44709D03*
X47793Y-44513D03*
X47793Y-44316D03*
X47793Y-44119D03*
X47793Y-43922D03*
X47793Y-43725D03*
X47793Y-43528D03*
G54D22*
X47400Y-52500D03*
G54D23*
X46652Y-51102D03*
X47144Y-51102D03*
X47656Y-51102D03*
X48148Y-51102D03*
G54D22*
X50000Y-52500D03*
G54D23*
X49252Y-51102D03*
X49744Y-51102D03*
X50256Y-51102D03*
X50748Y-51102D03*
G54D22*
X52600Y-52500D03*
G54D23*
X51852Y-51102D03*
X52344Y-51102D03*
X52856Y-51102D03*
X53348Y-51102D03*
G54D24*
X45466Y-47661D03*
X45466Y-48061D03*
X46016Y-48061D03*
X46016Y-47661D03*
G54D25*
X45016Y-47711D03*
X44616Y-47711D03*
X52400Y-43250D03*
X52800Y-43250D03*
X52800Y-43700D03*
X52400Y-43700D03*
X52400Y-42350D03*
X52800Y-42350D03*
X52800Y-42800D03*
X52400Y-42800D03*
X52400Y-41450D03*
X52800Y-41450D03*
X52800Y-41900D03*
X52400Y-41900D03*
X51216Y-41311D03*
X51616Y-41311D03*
X51616Y-41761D03*
X51216Y-41761D03*
X51266Y-46111D03*
X51666Y-46111D03*
G54D24*
X52616Y-44811D03*
X52616Y-44411D03*
X47066Y-43611D03*
X47066Y-44011D03*
X47716Y-46361D03*
X47716Y-46761D03*
G54D25*
X46666Y-43611D03*
X46266Y-43611D03*
G54D24*
X48716Y-41611D03*
X48716Y-41211D03*
G54D25*
X50766Y-41811D03*
X50366Y-41811D03*
G54D26*
X49916Y-41811D03*
X49916Y-41299D03*
X49247Y-41299D03*
X49247Y-41811D03*
G54D10*
G36*
X46316Y-54961D02*
X46316Y-53161D01*
X44016Y-53161D01*
X44016Y-54961D01*
X46316Y-54961D01*
X46316Y-54961D01*
G37*
G54D11*
X46316Y-54961D02*
X46316Y-53161D01*
X44016Y-53161D01*
X44016Y-54961D01*
X46316Y-54961D01*
M02*
