G04 (created by PCBNEW-RS274X (2012-01-19 BZR 3256)-stable) date 9/9/2012 2:54:21 PM*
G01*
G70*
G90*
%MOIN*%
G04 Gerber Fmt 3.4, Leading zero omitted, Abs format*
%FSLAX34Y34*%
G04 APERTURE LIST*
%ADD10C,0.001000*%
%ADD11C,0.015000*%
%ADD12R,0.022000X0.047000*%
%ADD13O,0.013800X0.057100*%
%ADD14O,0.057100X0.013800*%
%ADD15R,0.198900X0.163400*%
%ADD16R,0.021700X0.043300*%
%ADD17R,0.027000X0.022000*%
%ADD18R,0.022000X0.027000*%
%ADD19R,0.067200X0.059400*%
%ADD20R,0.035700X0.073100*%
%ADD21R,0.102700X0.083000*%
%ADD22R,0.094800X0.094800*%
%ADD23C,0.010000*%
G04 APERTURE END LIST*
G54D10*
G54D11*
X44016Y-40961D02*
X44016Y-54961D01*
X54016Y-40961D02*
X44016Y-40961D01*
X54016Y-54961D02*
X54016Y-40961D01*
X44016Y-54961D02*
X54016Y-54961D01*
G54D12*
X45950Y-48550D03*
X45450Y-48550D03*
X44950Y-48550D03*
X44450Y-48550D03*
X44450Y-51050D03*
X44950Y-51050D03*
X45450Y-51050D03*
X45950Y-51050D03*
G54D13*
X48383Y-42938D03*
X48580Y-42938D03*
X48777Y-42938D03*
X48974Y-42938D03*
X49171Y-42938D03*
X49368Y-42938D03*
X49564Y-42938D03*
X49761Y-42938D03*
X49958Y-42938D03*
X50155Y-42938D03*
X50352Y-42938D03*
X50549Y-42938D03*
G54D14*
X51139Y-43528D03*
X51139Y-43725D03*
X51139Y-43922D03*
X51139Y-44119D03*
X51139Y-44316D03*
X51139Y-44513D03*
X51139Y-44709D03*
X51139Y-44906D03*
X51139Y-45103D03*
X51139Y-45300D03*
X51139Y-45497D03*
X51139Y-45694D03*
G54D13*
X50549Y-46284D03*
X50352Y-46284D03*
X50155Y-46284D03*
X49958Y-46284D03*
X49761Y-46284D03*
X49564Y-46284D03*
X49368Y-46284D03*
X49171Y-46284D03*
X48974Y-46284D03*
X48777Y-46284D03*
X48580Y-46284D03*
X48383Y-46284D03*
G54D14*
X47793Y-45694D03*
X47793Y-45497D03*
X47793Y-45300D03*
X47793Y-45103D03*
X47793Y-44906D03*
X47793Y-44709D03*
X47793Y-44513D03*
X47793Y-44316D03*
X47793Y-44119D03*
X47793Y-43922D03*
X47793Y-43725D03*
X47793Y-43528D03*
G54D15*
X47400Y-52500D03*
G54D16*
X46652Y-51102D03*
X47144Y-51102D03*
X47656Y-51102D03*
X48148Y-51102D03*
G54D15*
X50000Y-52500D03*
G54D16*
X49252Y-51102D03*
X49744Y-51102D03*
X50256Y-51102D03*
X50748Y-51102D03*
G54D15*
X52600Y-52500D03*
G54D16*
X51852Y-51102D03*
X52344Y-51102D03*
X52856Y-51102D03*
X53348Y-51102D03*
G54D17*
X45466Y-47661D03*
X45466Y-48061D03*
X46016Y-48061D03*
X46016Y-47661D03*
G54D18*
X45016Y-47711D03*
X44616Y-47711D03*
X52400Y-43250D03*
X52800Y-43250D03*
X52800Y-43700D03*
X52400Y-43700D03*
X52400Y-42350D03*
X52800Y-42350D03*
X52800Y-42800D03*
X52400Y-42800D03*
X52400Y-41450D03*
X52800Y-41450D03*
X52800Y-41900D03*
X52400Y-41900D03*
X51216Y-41311D03*
X51616Y-41311D03*
X51616Y-41761D03*
X51216Y-41761D03*
X51266Y-46111D03*
X51666Y-46111D03*
G54D17*
X52616Y-44811D03*
X52616Y-44411D03*
X47066Y-43611D03*
X47066Y-44011D03*
X47716Y-46361D03*
X47716Y-46761D03*
G54D18*
X46666Y-43611D03*
X46266Y-43611D03*
G54D17*
X48716Y-41611D03*
X48716Y-41211D03*
G54D18*
X50766Y-41811D03*
X50366Y-41811D03*
G54D19*
X49916Y-41811D03*
X49916Y-41299D03*
X49247Y-41299D03*
X49247Y-41811D03*
G54D20*
X45504Y-42624D03*
X45760Y-42624D03*
X46016Y-42624D03*
X46272Y-42624D03*
X46528Y-42624D03*
G54D21*
X44796Y-42565D03*
X47236Y-42565D03*
G54D22*
X45544Y-41561D03*
X46488Y-41561D03*
X47591Y-41561D03*
X44441Y-41561D03*
G54D10*
G36*
X46316Y-54961D02*
X46316Y-53161D01*
X44016Y-53161D01*
X44016Y-54961D01*
X46316Y-54961D01*
X46316Y-54961D01*
G37*
G54D23*
X46316Y-54961D02*
X46316Y-53161D01*
X44016Y-53161D01*
X44016Y-54961D01*
X46316Y-54961D01*
M02*
