G04 (created by PCBNEW-RS274X (2012-01-19 BZR 3256)-stable) date 9/11/2012 11:00:15 PM*
G01*
G70*
G90*
%MOIN*%
G04 Gerber Fmt 3.4, Leading zero omitted, Abs format*
%FSLAX34Y34*%
G04 APERTURE LIST*
%ADD10C,0.001000*%
%ADD11C,0.015000*%
%ADD12R,0.050000X0.050000*%
%ADD13R,0.020000X0.030000*%
%ADD14R,0.035000X0.055000*%
%ADD15R,0.055000X0.035000*%
%ADD16R,0.019700X0.015700*%
%ADD17R,0.015700X0.019700*%
%ADD18R,0.020000X0.045000*%
%ADD19R,0.039400X0.027600*%
%ADD20R,0.031000X0.031000*%
%ADD21R,0.196900X0.161400*%
%ADD22R,0.019700X0.041300*%
%ADD23R,0.025000X0.020000*%
%ADD24R,0.020000X0.025000*%
%ADD25R,0.015700X0.023600*%
%ADD26C,0.027000*%
%ADD27C,0.020000*%
%ADD28C,0.018000*%
%ADD29C,0.007000*%
%ADD30C,0.008000*%
%ADD31C,0.010000*%
G04 APERTURE END LIST*
G54D10*
G54D11*
X44016Y-40961D02*
X44016Y-54961D01*
X54016Y-40961D02*
X44016Y-40961D01*
X54016Y-54961D02*
X54016Y-40961D01*
X44016Y-54961D02*
X54016Y-54961D01*
G54D12*
X53516Y-44611D03*
X52516Y-44611D03*
X51516Y-44611D03*
X50516Y-44611D03*
X49516Y-44611D03*
X49816Y-41661D03*
X48816Y-41661D03*
X47816Y-41661D03*
X46816Y-41661D03*
X45816Y-41661D03*
X44816Y-41661D03*
X50916Y-41661D03*
X51916Y-41661D03*
X52916Y-41661D03*
G54D13*
X46041Y-46211D03*
X46791Y-46211D03*
X46041Y-45211D03*
X46416Y-46211D03*
X46791Y-45211D03*
G54D14*
X50221Y-46361D03*
X50971Y-46361D03*
X45241Y-45961D03*
X44491Y-45961D03*
G54D15*
X45496Y-48036D03*
X45496Y-47286D03*
G54D14*
X45611Y-50981D03*
X44861Y-50981D03*
G54D16*
X45120Y-49181D03*
X45632Y-49181D03*
G54D17*
X53400Y-48144D03*
X53400Y-48656D03*
X50800Y-48144D03*
X50800Y-48656D03*
X48200Y-48144D03*
X48200Y-48656D03*
X45166Y-44655D03*
X45166Y-45167D03*
G54D18*
X47650Y-49550D03*
X47150Y-49550D03*
X46650Y-49550D03*
X46150Y-49550D03*
X46150Y-47050D03*
X46650Y-47050D03*
X47150Y-47050D03*
X47650Y-47050D03*
X50250Y-49550D03*
X49750Y-49550D03*
X49250Y-49550D03*
X48750Y-49550D03*
X48750Y-47050D03*
X49250Y-47050D03*
X49750Y-47050D03*
X50250Y-47050D03*
X52850Y-49550D03*
X52350Y-49550D03*
X51850Y-49550D03*
X51350Y-49550D03*
X51350Y-47050D03*
X51850Y-47050D03*
X52350Y-47050D03*
X52850Y-47050D03*
G54D19*
X45616Y-49626D03*
X45616Y-50001D03*
X45616Y-50376D03*
X44616Y-50376D03*
X44616Y-50001D03*
X44616Y-49626D03*
G54D20*
X49316Y-42861D03*
X49316Y-42261D03*
X48616Y-42861D03*
X48616Y-42261D03*
G54D21*
X47400Y-52200D03*
G54D22*
X46652Y-53598D03*
X47144Y-53598D03*
X47656Y-53598D03*
X48148Y-53598D03*
G54D21*
X50000Y-52200D03*
G54D22*
X49252Y-53598D03*
X49744Y-53598D03*
X50256Y-53598D03*
X50748Y-53598D03*
G54D21*
X52600Y-52200D03*
G54D22*
X51852Y-53598D03*
X52344Y-53598D03*
X52856Y-53598D03*
X53348Y-53598D03*
G54D23*
X50800Y-47500D03*
X50800Y-47100D03*
X44456Y-46901D03*
X44456Y-46501D03*
X44896Y-47241D03*
X44896Y-46841D03*
G54D24*
X48116Y-44311D03*
X48516Y-44311D03*
G54D23*
X49316Y-43211D03*
X49316Y-43611D03*
X48916Y-43211D03*
X48916Y-43611D03*
G54D24*
X48116Y-44711D03*
X48516Y-44711D03*
G54D23*
X53400Y-47500D03*
X53400Y-47100D03*
X48200Y-47500D03*
X48200Y-47100D03*
X53400Y-50300D03*
X53400Y-49900D03*
X53366Y-54011D03*
X53366Y-54411D03*
X50800Y-50300D03*
X50800Y-49900D03*
X50766Y-54011D03*
X50766Y-54411D03*
X48200Y-50300D03*
X48200Y-49900D03*
X48166Y-54011D03*
X48166Y-54411D03*
G54D24*
X46016Y-44711D03*
X46416Y-44711D03*
X47200Y-50300D03*
X46800Y-50300D03*
X49800Y-50300D03*
X49400Y-50300D03*
X52400Y-50300D03*
X52000Y-50300D03*
G54D25*
X45159Y-48641D03*
X45513Y-48641D03*
G54D26*
X52616Y-45161D03*
X50066Y-43461D03*
X47366Y-46061D03*
X50666Y-45711D03*
X45716Y-44711D03*
X45666Y-46811D03*
X47616Y-43211D03*
X44566Y-43261D03*
G54D27*
X51266Y-53661D03*
G54D26*
X53216Y-43711D03*
X49216Y-45761D03*
X50066Y-45711D03*
X49666Y-46761D03*
X49416Y-47061D03*
X49766Y-45461D03*
X51716Y-46621D03*
X48766Y-45161D03*
X47266Y-44461D03*
X47216Y-44811D03*
X49766Y-42361D03*
X53066Y-43261D03*
X52216Y-44311D03*
X50866Y-46861D03*
X51916Y-46111D03*
X48366Y-43611D03*
X48166Y-46761D03*
X46416Y-46611D03*
X44616Y-45111D03*
X53416Y-46761D03*
X53066Y-42361D03*
X53450Y-41450D03*
X48966Y-42161D03*
X46416Y-45161D03*
X45066Y-50011D03*
X50416Y-41261D03*
X46516Y-43111D03*
X49316Y-43811D03*
X48816Y-44011D03*
X53400Y-50600D03*
X52400Y-49000D03*
X53616Y-54661D03*
X50800Y-50600D03*
X49900Y-49100D03*
X50766Y-54661D03*
X48200Y-50600D03*
X47300Y-49100D03*
X48166Y-54661D03*
X49816Y-44311D03*
X46566Y-54561D03*
X47166Y-54561D03*
X46566Y-54261D03*
X46866Y-54561D03*
X47766Y-54561D03*
X46866Y-54261D03*
X47766Y-53961D03*
X47766Y-54261D03*
X47466Y-54261D03*
X46566Y-53961D03*
X46866Y-53961D03*
X47166Y-53961D03*
X47466Y-53961D03*
X47166Y-54261D03*
X47466Y-54561D03*
X46650Y-48700D03*
G54D28*
X51666Y-42161D03*
G54D26*
X49466Y-54561D03*
X49166Y-54561D03*
X49466Y-54261D03*
X49166Y-54261D03*
X49766Y-54561D03*
X50066Y-54561D03*
X50366Y-54561D03*
X50066Y-53961D03*
X49166Y-53961D03*
X49466Y-53961D03*
X49766Y-53961D03*
X49766Y-54261D03*
X50366Y-53961D03*
X50366Y-54261D03*
X50066Y-54261D03*
X49250Y-48700D03*
X53600Y-41900D03*
X52066Y-54561D03*
X51766Y-53961D03*
X51766Y-54561D03*
X52666Y-53961D03*
X52966Y-54561D03*
X51766Y-54261D03*
X52066Y-54261D03*
X52366Y-54261D03*
X52666Y-54261D03*
X52966Y-54261D03*
X52966Y-53961D03*
X52366Y-54561D03*
X52066Y-53961D03*
X52666Y-54561D03*
X52366Y-53961D03*
X53700Y-42800D03*
X51850Y-48700D03*
X50166Y-44861D03*
X50566Y-45111D03*
G54D11*
X44470Y-46864D02*
X44456Y-46878D01*
G54D29*
X48493Y-44711D02*
X48493Y-44684D01*
G54D30*
X53066Y-45111D02*
X53516Y-44611D01*
X53016Y-45161D02*
X53066Y-45111D01*
G54D11*
X46041Y-45211D02*
X46041Y-44736D01*
X46041Y-44736D02*
X46016Y-44711D01*
X46016Y-44711D02*
X45716Y-44711D01*
G54D30*
X52616Y-45161D02*
X53016Y-45161D01*
X44460Y-44655D02*
X44316Y-44511D01*
X45166Y-44655D02*
X44460Y-44655D01*
X44316Y-41361D02*
X44466Y-41211D01*
X44316Y-43261D02*
X44566Y-43261D01*
X46866Y-41211D02*
X47366Y-41211D01*
X47366Y-41211D02*
X47816Y-41661D01*
X44316Y-44511D02*
X44316Y-43261D01*
X44316Y-43261D02*
X44316Y-41361D01*
X44466Y-41211D02*
X46866Y-41211D01*
G54D11*
X45241Y-45961D02*
X45241Y-45242D01*
X53400Y-47477D02*
X53400Y-48144D01*
X46766Y-45236D02*
X46766Y-45461D01*
X46791Y-45211D02*
X46766Y-45236D01*
X46766Y-45511D02*
X46616Y-45661D01*
X50800Y-47477D02*
X50800Y-48144D01*
X47650Y-47375D02*
X47752Y-47477D01*
X46616Y-45661D02*
X46266Y-45661D01*
X48200Y-47477D02*
X48200Y-48144D01*
X50352Y-47477D02*
X50800Y-47477D01*
X46066Y-45861D02*
X46066Y-46186D01*
X50250Y-47050D02*
X50250Y-47375D01*
X52850Y-47050D02*
X52856Y-47056D01*
X47752Y-47477D02*
X48200Y-47477D01*
X50221Y-46361D02*
X50250Y-46390D01*
X45241Y-45242D02*
X45166Y-45167D01*
X46766Y-45461D02*
X46766Y-45511D01*
X47650Y-47050D02*
X47650Y-47375D01*
X52856Y-47056D02*
X52856Y-47361D01*
X50250Y-46390D02*
X50250Y-47050D01*
X45491Y-46211D02*
X45241Y-45961D01*
X44941Y-47286D02*
X45496Y-47286D01*
X44896Y-47241D02*
X44941Y-47286D01*
X46266Y-45661D02*
X46066Y-45861D01*
X46041Y-46211D02*
X45491Y-46211D01*
X46066Y-46186D02*
X46041Y-46211D01*
X52856Y-47361D02*
X52972Y-47477D01*
X50250Y-47375D02*
X50352Y-47477D01*
X52972Y-47477D02*
X53400Y-47477D01*
G54D30*
X52600Y-52200D02*
X52589Y-52211D01*
G54D11*
X45616Y-50376D02*
X45616Y-50001D01*
G54D30*
X52589Y-52211D02*
X51316Y-52211D01*
G54D11*
X45611Y-50981D02*
X45611Y-50381D01*
G54D30*
X51316Y-53611D02*
X51266Y-53661D01*
G54D11*
X45611Y-50381D02*
X45616Y-50376D01*
G54D30*
X51316Y-52211D02*
X51316Y-53611D01*
X48316Y-45761D02*
X49216Y-45761D01*
X47150Y-46927D02*
X48316Y-45761D01*
X47150Y-47050D02*
X47150Y-46927D01*
G54D29*
X47150Y-46900D02*
X47150Y-47050D01*
X46650Y-46927D02*
X46966Y-46611D01*
G54D30*
X49366Y-45461D02*
X49666Y-45761D01*
G54D29*
X46966Y-46611D02*
X47216Y-46611D01*
G54D30*
X48066Y-45761D02*
X48166Y-45661D01*
X47616Y-46211D02*
X48066Y-45761D01*
X48166Y-45661D02*
X48366Y-45461D01*
X48366Y-45461D02*
X49366Y-45461D01*
G54D29*
X46650Y-46927D02*
X46650Y-47050D01*
X47216Y-46611D02*
X47616Y-46211D01*
G54D30*
X50016Y-45761D02*
X49666Y-45761D01*
X50066Y-45711D02*
X50016Y-45761D01*
X49750Y-47050D02*
X49750Y-46895D01*
X49666Y-46811D02*
X49666Y-46761D01*
X49750Y-46895D02*
X49666Y-46811D01*
X49261Y-47061D02*
X49416Y-47061D01*
X49250Y-47050D02*
X49261Y-47061D01*
X49816Y-45411D02*
X50366Y-45411D01*
X49766Y-45461D02*
X49816Y-45411D01*
X50366Y-45411D02*
X51216Y-45411D01*
X51216Y-45411D02*
X51616Y-45811D01*
G54D29*
X52216Y-46011D02*
X52216Y-46916D01*
X51616Y-45811D02*
X52016Y-45811D01*
X52016Y-45811D02*
X52216Y-46011D01*
X52216Y-46916D02*
X52350Y-47050D01*
G54D30*
X50366Y-45411D02*
X50366Y-45411D01*
X51716Y-46781D02*
X51716Y-46621D01*
X51850Y-47050D02*
X51850Y-46915D01*
X51850Y-46915D02*
X51716Y-46781D01*
X48116Y-44961D02*
X48116Y-44711D01*
X48316Y-45161D02*
X48116Y-44961D01*
X48766Y-45161D02*
X48316Y-45161D01*
X48116Y-44311D02*
X48116Y-44711D01*
X47266Y-44461D02*
X47266Y-42111D01*
X47266Y-42111D02*
X46816Y-41661D01*
X46716Y-42111D02*
X46266Y-42111D01*
X46966Y-42361D02*
X46716Y-42111D01*
X46266Y-42111D02*
X45816Y-41661D01*
X46966Y-44561D02*
X46966Y-42361D01*
X47216Y-44811D02*
X46966Y-44561D01*
X52216Y-44311D02*
X52516Y-44611D01*
X50971Y-46361D02*
X50971Y-46756D01*
X50800Y-46927D02*
X50800Y-47100D01*
X50800Y-46927D02*
X50866Y-46861D01*
X49316Y-42261D02*
X49516Y-42061D01*
X53127Y-41450D02*
X52916Y-41661D01*
X53400Y-46777D02*
X53416Y-46761D01*
G54D11*
X44861Y-50866D02*
X45066Y-50661D01*
G54D30*
X51161Y-46861D02*
X51266Y-46861D01*
X48750Y-47050D02*
X48700Y-47100D01*
X46150Y-46877D02*
X46416Y-46611D01*
X48700Y-47100D02*
X48200Y-47100D01*
X48516Y-43761D02*
X48366Y-43611D01*
G54D11*
X45056Y-50001D02*
X45066Y-50011D01*
X45120Y-49181D02*
X45120Y-49957D01*
G54D30*
X48200Y-46845D02*
X48166Y-46811D01*
X48166Y-46811D02*
X48166Y-46761D01*
X48200Y-46845D02*
X48200Y-47100D01*
X46150Y-47050D02*
X46150Y-46877D01*
X46416Y-46611D02*
X46416Y-46211D01*
X53450Y-41450D02*
X53127Y-41450D01*
X49516Y-42011D02*
X49816Y-41711D01*
G54D11*
X45066Y-50661D02*
X45066Y-50011D01*
X44456Y-46501D02*
X44491Y-46466D01*
X44861Y-50866D02*
X44861Y-50981D01*
G54D30*
X49516Y-42061D02*
X49516Y-42011D01*
G54D11*
X46416Y-44711D02*
X46416Y-45161D01*
X44491Y-46466D02*
X44491Y-45961D01*
X44616Y-50001D02*
X45056Y-50001D01*
X44491Y-45236D02*
X44616Y-45111D01*
G54D30*
X53400Y-47100D02*
X53400Y-46777D01*
G54D11*
X45120Y-49957D02*
X45066Y-50011D01*
G54D30*
X49816Y-41711D02*
X49816Y-41661D01*
X50866Y-46861D02*
X51161Y-46861D01*
X49066Y-42261D02*
X48966Y-42161D01*
X51350Y-46945D02*
X51350Y-47050D01*
X51266Y-46861D02*
X51350Y-46945D01*
G54D11*
X44456Y-45996D02*
X44491Y-45961D01*
G54D30*
X50971Y-46756D02*
X50866Y-46861D01*
X48516Y-43761D02*
X48516Y-44311D01*
G54D11*
X50800Y-47100D02*
X50796Y-47096D01*
X44491Y-45961D02*
X44491Y-45236D01*
G54D30*
X48866Y-42261D02*
X48966Y-42161D01*
X48616Y-42261D02*
X48866Y-42261D01*
X49316Y-42261D02*
X49066Y-42261D01*
X49316Y-43811D02*
X49316Y-43611D01*
X48816Y-43711D02*
X48916Y-43611D01*
X48816Y-44011D02*
X48816Y-43711D01*
X49316Y-42861D02*
X49316Y-43211D01*
X48916Y-43211D02*
X48616Y-42911D01*
X48616Y-42911D02*
X48616Y-42861D01*
G54D11*
X45159Y-48641D02*
X45036Y-48641D01*
X45036Y-48641D02*
X44616Y-49061D01*
X44616Y-49061D02*
X44616Y-49626D01*
G54D30*
X51350Y-48650D02*
X51600Y-48400D01*
X53700Y-48500D02*
X53700Y-49623D01*
X53600Y-48400D02*
X53700Y-48500D01*
X53677Y-49623D02*
X53400Y-49900D01*
X53700Y-49623D02*
X53677Y-49623D01*
X51350Y-49550D02*
X51350Y-48650D01*
X51600Y-48400D02*
X53600Y-48400D01*
X50803Y-49897D02*
X50800Y-49900D01*
X48753Y-48647D02*
X48753Y-49547D01*
X49000Y-48400D02*
X51000Y-48400D01*
X51000Y-48400D02*
X51100Y-48500D01*
X50803Y-49297D02*
X50803Y-49897D01*
X51100Y-48500D02*
X51100Y-49000D01*
X50803Y-49297D02*
X50800Y-49300D01*
X48753Y-49547D02*
X48750Y-49550D01*
X48750Y-48650D02*
X48753Y-48647D01*
X51100Y-49000D02*
X50803Y-49297D01*
X48753Y-48647D02*
X49000Y-48400D01*
X53366Y-53616D02*
X53348Y-53598D01*
X53366Y-54011D02*
X53366Y-53616D01*
X50250Y-49550D02*
X50250Y-49206D01*
G54D11*
X50250Y-49850D02*
X49800Y-50300D01*
X50250Y-49550D02*
X50250Y-49850D01*
G54D30*
X50250Y-49206D02*
X50800Y-48656D01*
X53400Y-50300D02*
X53400Y-50600D01*
X52350Y-49050D02*
X52350Y-49550D01*
X53366Y-54411D02*
X53616Y-54661D01*
X52350Y-49050D02*
X52400Y-49000D01*
G54D11*
X50800Y-50300D02*
X50800Y-50600D01*
G54D30*
X50766Y-53616D02*
X50748Y-53598D01*
X50766Y-54011D02*
X50766Y-53616D01*
X49800Y-49500D02*
X49750Y-49550D01*
X49800Y-49200D02*
X49800Y-49500D01*
X49900Y-49100D02*
X49800Y-49200D01*
X50766Y-54411D02*
X50766Y-54661D01*
G54D11*
X48200Y-50300D02*
X48200Y-50600D01*
G54D30*
X48166Y-54011D02*
X48166Y-53616D01*
X48166Y-53616D02*
X48148Y-53598D01*
X47150Y-49250D02*
X47150Y-49550D01*
X48166Y-54411D02*
X48166Y-54661D01*
X47153Y-49247D02*
X47150Y-49250D01*
X47300Y-49100D02*
X47153Y-49247D01*
G54D11*
X52850Y-49550D02*
X52850Y-49850D01*
G54D30*
X52856Y-49200D02*
X52856Y-49544D01*
X52856Y-49200D02*
X53400Y-48656D01*
X52856Y-49544D02*
X52850Y-49550D01*
X52850Y-49206D02*
X52856Y-49200D01*
G54D11*
X52850Y-49850D02*
X52400Y-50300D01*
X47650Y-49550D02*
X47650Y-49850D01*
X47650Y-49850D02*
X47200Y-50300D01*
G54D30*
X47650Y-49206D02*
X48200Y-48656D01*
X47650Y-49550D02*
X47650Y-49206D01*
G54D11*
X44836Y-46901D02*
X44456Y-46901D01*
G54D30*
X44381Y-50376D02*
X44266Y-50261D01*
X44266Y-49111D02*
X44456Y-48921D01*
X44266Y-50261D02*
X44266Y-49111D01*
X44381Y-50376D02*
X44616Y-50376D01*
G54D11*
X44896Y-46841D02*
X44836Y-46901D01*
G54D30*
X44456Y-46901D02*
X44456Y-48921D01*
G54D11*
X45513Y-48641D02*
X45513Y-48518D01*
X45513Y-48518D02*
X45496Y-48501D01*
X45496Y-48501D02*
X45496Y-48036D01*
X45616Y-49197D02*
X45632Y-49181D01*
X45632Y-48645D02*
X45632Y-49181D01*
X45636Y-48641D02*
X45496Y-48501D01*
X45636Y-48641D02*
X45632Y-48645D01*
X45616Y-49626D02*
X45616Y-49197D01*
G54D30*
X48200Y-49300D02*
X48200Y-49900D01*
X48400Y-48400D02*
X48500Y-48500D01*
X46153Y-48697D02*
X46150Y-48700D01*
X46153Y-48697D02*
X46450Y-48400D01*
X46450Y-48400D02*
X48400Y-48400D01*
X46150Y-48700D02*
X46150Y-49550D01*
X48500Y-49000D02*
X48203Y-49297D01*
X48500Y-48500D02*
X48500Y-49000D01*
X48203Y-49297D02*
X48200Y-49300D01*
X49516Y-44611D02*
X49816Y-44311D01*
X49516Y-44611D02*
X49566Y-44661D01*
X47466Y-54561D02*
X47766Y-54561D01*
X47166Y-54261D02*
X46866Y-54261D01*
X46652Y-53598D02*
X46652Y-53925D01*
X46566Y-54261D02*
X46566Y-54561D01*
X46866Y-54561D02*
X47166Y-54561D01*
X47766Y-54261D02*
X47466Y-54261D01*
X46616Y-53961D02*
X46566Y-53961D01*
X47466Y-53961D02*
X47766Y-53961D01*
X46866Y-53961D02*
X47166Y-53961D01*
G54D29*
X46650Y-49550D02*
X46650Y-48700D01*
G54D30*
X46800Y-50277D02*
X46800Y-50300D01*
X46652Y-53925D02*
X46616Y-53961D01*
G54D11*
X46650Y-49550D02*
X46650Y-50150D01*
X46650Y-50150D02*
X46800Y-50300D01*
G54D30*
X49166Y-54261D02*
X49166Y-54561D01*
X49466Y-54561D02*
X49766Y-54561D01*
X50066Y-54561D02*
X50366Y-54561D01*
X49252Y-53598D02*
X49252Y-53875D01*
X49252Y-53875D02*
X49166Y-53961D01*
X49466Y-53961D02*
X49766Y-53961D01*
X50066Y-53961D02*
X50366Y-53961D01*
X50366Y-54261D02*
X50066Y-54261D01*
G54D11*
X49250Y-50150D02*
X49400Y-50300D01*
G54D30*
X49250Y-49550D02*
X49250Y-49695D01*
X49766Y-54261D02*
X49466Y-54261D01*
G54D29*
X49250Y-49550D02*
X49250Y-48700D01*
G54D11*
X49250Y-49550D02*
X49250Y-50150D01*
G54D30*
X52066Y-53961D02*
X52366Y-53961D01*
X51852Y-53875D02*
X51766Y-53961D01*
G54D11*
X51850Y-49550D02*
X51850Y-50150D01*
G54D29*
X51850Y-49550D02*
X51850Y-48700D01*
G54D30*
X52366Y-54261D02*
X52066Y-54261D01*
X52966Y-54261D02*
X52666Y-54261D01*
X52666Y-53961D02*
X52966Y-53961D01*
X52066Y-54561D02*
X52366Y-54561D01*
X51766Y-54261D02*
X51766Y-54561D01*
X51852Y-53598D02*
X51852Y-53875D01*
X52666Y-54561D02*
X52966Y-54561D01*
G54D11*
X51850Y-50150D02*
X52000Y-50300D01*
G54D30*
X49266Y-44111D02*
X48766Y-44611D01*
X48616Y-44611D02*
X48516Y-44711D01*
G54D29*
X49766Y-43961D02*
X49766Y-42734D01*
X50916Y-41661D02*
X49766Y-42734D01*
G54D30*
X48766Y-44611D02*
X48616Y-44611D01*
X49616Y-44111D02*
X49266Y-44111D01*
G54D29*
X49616Y-44111D02*
X49766Y-43961D01*
G54D30*
X50266Y-44861D02*
X50166Y-44861D01*
X50516Y-44611D02*
X50266Y-44861D01*
X50566Y-45111D02*
X51016Y-45111D01*
X51516Y-44611D02*
X51016Y-45111D01*
G54D31*
X51650Y-53350D02*
X53050Y-53350D01*
X51650Y-53430D02*
X53050Y-53430D01*
X51650Y-53510D02*
X53050Y-53510D01*
X51650Y-53590D02*
X53050Y-53590D01*
X51650Y-53670D02*
X53050Y-53670D01*
X51650Y-53750D02*
X53050Y-53750D01*
X51650Y-53830D02*
X53050Y-53830D01*
X51650Y-53910D02*
X53050Y-53910D01*
X51650Y-53990D02*
X53050Y-53990D01*
X51650Y-54070D02*
X53050Y-54070D01*
X51650Y-54150D02*
X53050Y-54150D01*
X51650Y-54230D02*
X53050Y-54230D01*
X51650Y-54310D02*
X53050Y-54310D01*
X51650Y-54390D02*
X53050Y-54390D01*
X51650Y-54470D02*
X53050Y-54470D01*
X51650Y-54550D02*
X53050Y-54550D01*
X51650Y-54630D02*
X53050Y-54630D01*
X51650Y-54710D02*
X53050Y-54710D01*
X53050Y-54736D02*
X51650Y-54736D01*
X51650Y-53350D01*
X53050Y-53350D01*
X53050Y-54736D01*
X49050Y-53350D02*
X50450Y-53350D01*
X49050Y-53430D02*
X50450Y-53430D01*
X49050Y-53510D02*
X50450Y-53510D01*
X49050Y-53590D02*
X50450Y-53590D01*
X49050Y-53670D02*
X50450Y-53670D01*
X49050Y-53750D02*
X50450Y-53750D01*
X49050Y-53830D02*
X50450Y-53830D01*
X49050Y-53910D02*
X50450Y-53910D01*
X49050Y-53990D02*
X50450Y-53990D01*
X49050Y-54070D02*
X50450Y-54070D01*
X49050Y-54150D02*
X50450Y-54150D01*
X49050Y-54230D02*
X50450Y-54230D01*
X49050Y-54310D02*
X50450Y-54310D01*
X49050Y-54390D02*
X50450Y-54390D01*
X49050Y-54470D02*
X50450Y-54470D01*
X49050Y-54550D02*
X50450Y-54550D01*
X49050Y-54630D02*
X50450Y-54630D01*
X49050Y-54710D02*
X50450Y-54710D01*
X50450Y-54736D02*
X49050Y-54736D01*
X49050Y-53350D01*
X50450Y-53350D01*
X50450Y-54736D01*
X46450Y-53350D02*
X47850Y-53350D01*
X46450Y-53430D02*
X47850Y-53430D01*
X46450Y-53510D02*
X47850Y-53510D01*
X46450Y-53590D02*
X47850Y-53590D01*
X46450Y-53670D02*
X47850Y-53670D01*
X46450Y-53750D02*
X47850Y-53750D01*
X46450Y-53830D02*
X47850Y-53830D01*
X46450Y-53910D02*
X47850Y-53910D01*
X46450Y-53990D02*
X47850Y-53990D01*
X46450Y-54070D02*
X47850Y-54070D01*
X46450Y-54150D02*
X47850Y-54150D01*
X46450Y-54230D02*
X47850Y-54230D01*
X46450Y-54310D02*
X47850Y-54310D01*
X46450Y-54390D02*
X47850Y-54390D01*
X46450Y-54470D02*
X47850Y-54470D01*
X46450Y-54550D02*
X47850Y-54550D01*
X46450Y-54630D02*
X47850Y-54630D01*
X46450Y-54710D02*
X47850Y-54710D01*
X47850Y-54736D02*
X46450Y-54736D01*
X46450Y-53350D01*
X47850Y-53350D01*
X47850Y-54736D01*
X45450Y-50838D02*
X45850Y-50838D01*
X45450Y-50918D02*
X45850Y-50918D01*
X45450Y-50998D02*
X45850Y-50998D01*
X45450Y-51078D02*
X45850Y-51078D01*
X45450Y-51158D02*
X45850Y-51158D01*
X45450Y-51238D02*
X45850Y-51238D01*
X45450Y-51318D02*
X45850Y-51318D01*
X45450Y-51398D02*
X45850Y-51398D01*
X44250Y-51478D02*
X53550Y-51478D01*
X44250Y-51558D02*
X53550Y-51558D01*
X44250Y-51638D02*
X53550Y-51638D01*
X44250Y-51718D02*
X53550Y-51718D01*
X44250Y-51798D02*
X53550Y-51798D01*
X44250Y-51878D02*
X53550Y-51878D01*
X44250Y-51958D02*
X53550Y-51958D01*
X44250Y-52038D02*
X53550Y-52038D01*
X44250Y-52118D02*
X53550Y-52118D01*
X44250Y-52198D02*
X53550Y-52198D01*
X44250Y-52278D02*
X53550Y-52278D01*
X44250Y-52358D02*
X53550Y-52358D01*
X44250Y-52438D02*
X53550Y-52438D01*
X44250Y-52518D02*
X53550Y-52518D01*
X44250Y-52598D02*
X53550Y-52598D01*
X44250Y-52678D02*
X53550Y-52678D01*
X44250Y-52758D02*
X53550Y-52758D01*
X44250Y-52838D02*
X53550Y-52838D01*
X44250Y-52918D02*
X53550Y-52918D01*
X44250Y-52998D02*
X46050Y-52998D01*
X44250Y-53078D02*
X46050Y-53078D01*
X44250Y-53158D02*
X46050Y-53158D01*
X44250Y-53238D02*
X46050Y-53238D01*
X44250Y-53318D02*
X46050Y-53318D01*
X44250Y-53398D02*
X46050Y-53398D01*
X44250Y-53478D02*
X46050Y-53478D01*
X44250Y-53558D02*
X46050Y-53558D01*
X44250Y-53638D02*
X46050Y-53638D01*
X44250Y-53718D02*
X46050Y-53718D01*
X44250Y-53798D02*
X46050Y-53798D01*
X44250Y-53878D02*
X46050Y-53878D01*
X44250Y-53958D02*
X46050Y-53958D01*
X44250Y-54038D02*
X46050Y-54038D01*
X44250Y-54118D02*
X46050Y-54118D01*
X44250Y-54198D02*
X46050Y-54198D01*
X44250Y-54278D02*
X46050Y-54278D01*
X44250Y-54358D02*
X46050Y-54358D01*
X44250Y-54438D02*
X46050Y-54438D01*
X44250Y-54518D02*
X46050Y-54518D01*
X44250Y-54598D02*
X46050Y-54598D01*
X44250Y-54678D02*
X46050Y-54678D01*
X53550Y-52950D02*
X46050Y-52950D01*
X46050Y-54736D01*
X44250Y-54736D01*
X44250Y-51450D01*
X45450Y-51450D01*
X45450Y-50838D01*
X45850Y-50838D01*
X45850Y-51450D01*
X53550Y-51450D01*
X53550Y-52950D01*
G54D10*
G36*
X53666Y-48211D02*
X53605Y-48211D01*
X53600Y-48210D01*
X51600Y-48210D01*
X51594Y-48211D01*
X51005Y-48211D01*
X51000Y-48210D01*
X49000Y-48210D01*
X48994Y-48211D01*
X48405Y-48211D01*
X48400Y-48210D01*
X46586Y-48210D01*
X45837Y-47461D01*
X45266Y-47461D01*
X45266Y-46640D01*
X45116Y-46490D01*
X45116Y-45761D01*
X45816Y-45761D01*
X45816Y-46566D01*
X45723Y-46527D01*
X45610Y-46527D01*
X45506Y-46570D01*
X45426Y-46650D01*
X45382Y-46754D01*
X45382Y-46867D01*
X45425Y-46971D01*
X45505Y-47051D01*
X45609Y-47095D01*
X45722Y-47095D01*
X45816Y-47056D01*
X45816Y-47282D01*
X45995Y-47461D01*
X53666Y-47461D01*
X53666Y-48211D01*
X53666Y-48211D01*
G37*
G54D31*
X53666Y-48211D02*
X53605Y-48211D01*
X53600Y-48210D01*
X51600Y-48210D01*
X51594Y-48211D01*
X51005Y-48211D01*
X51000Y-48210D01*
X49000Y-48210D01*
X48994Y-48211D01*
X48405Y-48211D01*
X48400Y-48210D01*
X46586Y-48210D01*
X45837Y-47461D01*
X45266Y-47461D01*
X45266Y-46640D01*
X45116Y-46490D01*
X45116Y-45761D01*
X45816Y-45761D01*
X45816Y-46566D01*
X45723Y-46527D01*
X45610Y-46527D01*
X45506Y-46570D01*
X45426Y-46650D01*
X45382Y-46754D01*
X45382Y-46867D01*
X45425Y-46971D01*
X45505Y-47051D01*
X45609Y-47095D01*
X45722Y-47095D01*
X45816Y-47056D01*
X45816Y-47282D01*
X45995Y-47461D01*
X53666Y-47461D01*
X53666Y-48211D01*
M02*
