M48
;DRILL file {Pcbnew (2012-01-19 BZR 3256)-stable} date 9/9/2012 2:54:38 PM
;FORMAT={2:4/ absolute / inch / suppress leading zeros}
FMAT,2
INCH,TZ
T1C0.013
%
G90
G05
M72
T1
X44566Y-43261
X44616Y-45111
X45066Y-50011
X45666Y-46811
X45716Y-44711
X46416Y-45161
X46416Y-46611
X46516Y-43111
X46566Y-53961
X46566Y-54261
X46566Y-54561
X46650Y-48700
X46866Y-53961
X46866Y-54261
X46866Y-54561
X47166Y-53961
X47166Y-54261
X47166Y-54561
X47216Y-44811
X47266Y-44461
X47300Y-49100
X47366Y-46061
X47466Y-53961
X47466Y-54261
X47466Y-54561
X47616Y-43211
X47766Y-53961
X47766Y-54261
X47766Y-54561
X48166Y-46761
X48166Y-54661
X48200Y-50600
X48366Y-43611
X48766Y-45161
X48816Y-44011
X48966Y-42161
X49166Y-53961
X49166Y-54261
X49166Y-54561
X49216Y-45761
X49250Y-48700
X49316Y-43811
X49416Y-47061
X49466Y-53961
X49466Y-54261
X49466Y-54561
X49666Y-46761
X49766Y-42361
X49766Y-45461
X49766Y-53961
X49766Y-54261
X49766Y-54561
X49816Y-44311
X49900Y-49100
X50066Y-43461
X50066Y-45711
X50066Y-53961
X50066Y-54261
X50066Y-54561
X50166Y-44861
X50366Y-53961
X50366Y-54261
X50366Y-54561
X50416Y-41261
X50566Y-45111
X50666Y-45711
X50766Y-54661
X50800Y-50600
X50866Y-46861
X51266Y-53661
X51666Y-42161
X51716Y-46621
X51766Y-53961
X51766Y-54261
X51766Y-54561
X51850Y-48700
X51916Y-46111
X52066Y-53961
X52066Y-54261
X52066Y-54561
X52216Y-44311
X52366Y-53961
X52366Y-54261
X52366Y-54561
X52400Y-49000
X52616Y-45161
X52666Y-53961
X52666Y-54261
X52666Y-54561
X52966Y-53961
X52966Y-54261
X52966Y-54561
X53066Y-42361
X53066Y-43261
X53216Y-43711
X53400Y-50600
X53416Y-46761
X53450Y-41450
X53600Y-41900
X53616Y-54661
X53700Y-42800
T0
M30
