G04 (created by PCBNEW-RS274X (2012-01-19 BZR 3256)-stable) date 9/11/2012 11:00:15 PM*
G01*
G70*
G90*
%MOIN*%
G04 Gerber Fmt 3.4, Leading zero omitted, Abs format*
%FSLAX34Y34*%
G04 APERTURE LIST*
%ADD10C,0.001000*%
%ADD11C,0.015000*%
%ADD12C,0.027000*%
%ADD13C,0.020000*%
%ADD14C,0.018000*%
%ADD15C,0.008000*%
%ADD16C,0.007000*%
%ADD17C,0.010000*%
G04 APERTURE END LIST*
G54D10*
G54D11*
X44016Y-40961D02*
X44016Y-54961D01*
X54016Y-40961D02*
X44016Y-40961D01*
X54016Y-54961D02*
X54016Y-40961D01*
X44016Y-54961D02*
X54016Y-54961D01*
G54D12*
X52616Y-45161D03*
X50066Y-43461D03*
X47366Y-46061D03*
X50666Y-45711D03*
X45716Y-44711D03*
X45666Y-46811D03*
X47616Y-43211D03*
X44566Y-43261D03*
G54D13*
X51266Y-53661D03*
G54D12*
X53216Y-43711D03*
X49216Y-45761D03*
X50066Y-45711D03*
X49666Y-46761D03*
X49416Y-47061D03*
X49766Y-45461D03*
X51716Y-46621D03*
X48766Y-45161D03*
X47266Y-44461D03*
X47216Y-44811D03*
X49766Y-42361D03*
X53066Y-43261D03*
X52216Y-44311D03*
X50866Y-46861D03*
X51916Y-46111D03*
X48366Y-43611D03*
X48166Y-46761D03*
X46416Y-46611D03*
X44616Y-45111D03*
X53416Y-46761D03*
X53066Y-42361D03*
X53450Y-41450D03*
X48966Y-42161D03*
X46416Y-45161D03*
X45066Y-50011D03*
X50416Y-41261D03*
X46516Y-43111D03*
X49316Y-43811D03*
X48816Y-44011D03*
X53400Y-50600D03*
X52400Y-49000D03*
X53616Y-54661D03*
X50800Y-50600D03*
X49900Y-49100D03*
X50766Y-54661D03*
X48200Y-50600D03*
X47300Y-49100D03*
X48166Y-54661D03*
X49816Y-44311D03*
X46566Y-54561D03*
X47166Y-54561D03*
X46566Y-54261D03*
X46866Y-54561D03*
X47766Y-54561D03*
X46866Y-54261D03*
X47766Y-53961D03*
X47766Y-54261D03*
X47466Y-54261D03*
X46566Y-53961D03*
X46866Y-53961D03*
X47166Y-53961D03*
X47466Y-53961D03*
X47166Y-54261D03*
X47466Y-54561D03*
X46650Y-48700D03*
G54D14*
X51666Y-42161D03*
G54D12*
X49466Y-54561D03*
X49166Y-54561D03*
X49466Y-54261D03*
X49166Y-54261D03*
X49766Y-54561D03*
X50066Y-54561D03*
X50366Y-54561D03*
X50066Y-53961D03*
X49166Y-53961D03*
X49466Y-53961D03*
X49766Y-53961D03*
X49766Y-54261D03*
X50366Y-53961D03*
X50366Y-54261D03*
X50066Y-54261D03*
X49250Y-48700D03*
X53600Y-41900D03*
X52066Y-54561D03*
X51766Y-53961D03*
X51766Y-54561D03*
X52666Y-53961D03*
X52966Y-54561D03*
X51766Y-54261D03*
X52066Y-54261D03*
X52366Y-54261D03*
X52666Y-54261D03*
X52966Y-54261D03*
X52966Y-53961D03*
X52366Y-54561D03*
X52066Y-53961D03*
X52666Y-54561D03*
X52366Y-53961D03*
X53700Y-42800D03*
X51850Y-48700D03*
X50166Y-44861D03*
X50566Y-45111D03*
G54D15*
X53700Y-54577D02*
X53700Y-50300D01*
X52400Y-49000D02*
X53700Y-50300D01*
X53616Y-54661D02*
X53700Y-54577D01*
X50666Y-52234D02*
X51100Y-51800D01*
X51100Y-51800D02*
X51100Y-50300D01*
X50766Y-54661D02*
X50666Y-54561D01*
X51100Y-50300D02*
X49900Y-49100D01*
X50666Y-54266D02*
X50666Y-54261D01*
X50666Y-54261D02*
X50666Y-52234D01*
X50666Y-54561D02*
X50666Y-54261D01*
X48500Y-51500D02*
X48500Y-50300D01*
X48500Y-50300D02*
X47300Y-49100D01*
X48166Y-54661D02*
X48500Y-54327D01*
X48500Y-54327D02*
X48500Y-51500D01*
X47717Y-54055D02*
X47717Y-50117D01*
X47150Y-49550D02*
X46650Y-49050D01*
X53216Y-44866D02*
X53300Y-44950D01*
X51666Y-42161D02*
X51666Y-42561D01*
X47717Y-50117D02*
X47150Y-49550D01*
G54D16*
X50850Y-48100D02*
X49700Y-48100D01*
X53300Y-44950D02*
X53300Y-45650D01*
X49700Y-48100D02*
X49550Y-48100D01*
X49400Y-48250D02*
X47400Y-48250D01*
G54D15*
X53216Y-44111D02*
X53216Y-44866D01*
X51666Y-42561D02*
X53216Y-44111D01*
X46650Y-49050D02*
X46650Y-48700D01*
G54D16*
X50950Y-48000D02*
X50850Y-48100D01*
X51050Y-47900D02*
X50950Y-48000D01*
X53200Y-45750D02*
X51850Y-47100D01*
X53300Y-45650D02*
X53200Y-45750D01*
X47100Y-48250D02*
X47400Y-48250D01*
X51850Y-47100D02*
X51050Y-47900D01*
X47100Y-48250D02*
X46650Y-48700D01*
X49550Y-48100D02*
X49400Y-48250D01*
G54D15*
X50276Y-50176D02*
X49750Y-49650D01*
G54D16*
X53600Y-42500D02*
X53450Y-42650D01*
X49250Y-48700D02*
X49650Y-48300D01*
X53500Y-43100D02*
X53500Y-44950D01*
G54D15*
X49750Y-49650D02*
X49250Y-49150D01*
G54D16*
X52950Y-46300D02*
X52950Y-46300D01*
G54D15*
X50276Y-54055D02*
X50276Y-50176D01*
G54D16*
X49950Y-48300D02*
X49800Y-48300D01*
X53400Y-42800D02*
X53400Y-43000D01*
X53400Y-43000D02*
X53500Y-43100D01*
X51200Y-48050D02*
X50950Y-48300D01*
X49650Y-48300D02*
X49800Y-48300D01*
X53450Y-42650D02*
X53400Y-42700D01*
X52950Y-46300D02*
X52672Y-46578D01*
X53250Y-46000D02*
X52950Y-46300D01*
X53500Y-43100D02*
X53500Y-43100D01*
X53500Y-44950D02*
X53500Y-45750D01*
X53600Y-42300D02*
X53600Y-42500D01*
X53400Y-42700D02*
X53400Y-42800D01*
X50950Y-48300D02*
X49950Y-48300D01*
X53500Y-45750D02*
X53250Y-46000D01*
X51700Y-47550D02*
X52672Y-46578D01*
X52672Y-46578D02*
X52672Y-46578D01*
G54D15*
X49250Y-49150D02*
X49250Y-48700D01*
G54D16*
X51700Y-47550D02*
X51200Y-48050D01*
X53600Y-41900D02*
X53600Y-42300D01*
G54D15*
X51850Y-49050D02*
X51850Y-48700D01*
G54D16*
X53700Y-45850D02*
X53600Y-45950D01*
X53700Y-42800D02*
X53700Y-43250D01*
X52550Y-47000D02*
X52150Y-47400D01*
G54D15*
X52874Y-54055D02*
X52874Y-50074D01*
G54D16*
X51850Y-47700D02*
X52150Y-47400D01*
G54D15*
X52874Y-50074D02*
X52350Y-49550D01*
G54D16*
X51850Y-47700D02*
X51850Y-48700D01*
X53700Y-43250D02*
X53700Y-45850D01*
X53600Y-45950D02*
X52550Y-47000D01*
G54D15*
X52350Y-49550D02*
X51850Y-49050D01*
G54D17*
X44350Y-41350D02*
X50145Y-41350D01*
X50686Y-41350D02*
X53184Y-41350D01*
X44350Y-41430D02*
X50184Y-41430D01*
X50648Y-41430D02*
X53166Y-41430D01*
X44350Y-41510D02*
X50277Y-41510D01*
X50557Y-41510D02*
X53168Y-41510D01*
X44350Y-41590D02*
X53201Y-41590D01*
X44350Y-41670D02*
X53269Y-41670D01*
X44350Y-41750D02*
X53355Y-41750D01*
X44350Y-41830D02*
X53321Y-41830D01*
X44350Y-41910D02*
X48830Y-41910D01*
X49101Y-41910D02*
X53316Y-41910D01*
X44350Y-41990D02*
X48736Y-41990D01*
X49196Y-41990D02*
X51499Y-41990D01*
X51833Y-41990D02*
X53331Y-41990D01*
X44350Y-42070D02*
X48696Y-42070D01*
X49235Y-42070D02*
X51445Y-42070D01*
X51887Y-42070D02*
X53369Y-42070D01*
X44350Y-42150D02*
X48682Y-42150D01*
X49250Y-42150D02*
X49576Y-42150D01*
X49956Y-42150D02*
X51427Y-42150D01*
X51905Y-42150D02*
X52876Y-42150D01*
X53256Y-42150D02*
X53415Y-42150D01*
X44350Y-42230D02*
X48688Y-42230D01*
X49245Y-42230D02*
X49250Y-42230D01*
X49250Y-42230D02*
X49513Y-42230D01*
X50018Y-42230D02*
X51436Y-42230D01*
X51897Y-42230D02*
X52813Y-42230D01*
X53318Y-42230D02*
X53415Y-42230D01*
X44350Y-42310D02*
X48721Y-42310D01*
X49212Y-42310D02*
X49250Y-42310D01*
X49250Y-42310D02*
X49482Y-42310D01*
X50050Y-42310D02*
X51476Y-42310D01*
X51856Y-42310D02*
X52782Y-42310D01*
X53350Y-42310D02*
X53415Y-42310D01*
X44350Y-42390D02*
X48794Y-42390D01*
X49138Y-42390D02*
X49250Y-42390D01*
X49250Y-42390D02*
X49482Y-42390D01*
X50050Y-42390D02*
X51476Y-42390D01*
X51856Y-42390D02*
X52782Y-42390D01*
X53350Y-42390D02*
X53415Y-42390D01*
X44350Y-42470D02*
X49250Y-42470D01*
X49250Y-42470D02*
X49504Y-42470D01*
X50028Y-42470D02*
X50050Y-42470D01*
X50050Y-42470D02*
X51476Y-42470D01*
X51856Y-42470D02*
X52804Y-42470D01*
X53328Y-42470D02*
X53350Y-42470D01*
X53350Y-42470D02*
X53368Y-42470D01*
X44350Y-42550D02*
X49250Y-42550D01*
X49250Y-42550D02*
X49554Y-42550D01*
X49978Y-42550D02*
X50050Y-42550D01*
X50050Y-42550D02*
X51476Y-42550D01*
X51923Y-42550D02*
X52854Y-42550D01*
X53278Y-42550D02*
X53288Y-42550D01*
X44350Y-42630D02*
X49250Y-42630D01*
X49250Y-42630D02*
X49674Y-42630D01*
X49859Y-42630D02*
X50050Y-42630D01*
X50050Y-42630D02*
X51490Y-42630D01*
X52003Y-42630D02*
X52974Y-42630D01*
X53159Y-42630D02*
X53228Y-42630D01*
X44350Y-42710D02*
X49250Y-42710D01*
X49250Y-42710D02*
X50050Y-42710D01*
X50050Y-42710D02*
X51547Y-42710D01*
X52083Y-42710D02*
X53215Y-42710D01*
X44350Y-42790D02*
X49250Y-42790D01*
X49250Y-42790D02*
X50050Y-42790D01*
X50050Y-42790D02*
X51627Y-42790D01*
X52163Y-42790D02*
X53215Y-42790D01*
X44350Y-42870D02*
X46356Y-42870D01*
X46674Y-42870D02*
X49250Y-42870D01*
X49250Y-42870D02*
X50050Y-42870D01*
X50050Y-42870D02*
X51707Y-42870D01*
X52243Y-42870D02*
X53215Y-42870D01*
X44350Y-42950D02*
X46276Y-42950D01*
X46756Y-42950D02*
X49250Y-42950D01*
X49250Y-42950D02*
X50050Y-42950D01*
X50050Y-42950D02*
X51787Y-42950D01*
X52323Y-42950D02*
X53215Y-42950D01*
X44350Y-43030D02*
X44396Y-43030D01*
X44736Y-43030D02*
X46242Y-43030D01*
X46789Y-43030D02*
X49250Y-43030D01*
X49250Y-43030D02*
X50050Y-43030D01*
X50050Y-43030D02*
X51867Y-43030D01*
X52403Y-43030D02*
X52896Y-43030D01*
X44810Y-43110D02*
X46232Y-43110D01*
X46800Y-43110D02*
X49250Y-43110D01*
X49250Y-43110D02*
X50050Y-43110D01*
X50050Y-43110D02*
X51947Y-43110D01*
X52483Y-43110D02*
X52821Y-43110D01*
X44843Y-43190D02*
X46242Y-43190D01*
X46791Y-43190D02*
X46800Y-43190D01*
X46800Y-43190D02*
X49250Y-43190D01*
X49250Y-43190D02*
X50050Y-43190D01*
X50050Y-43190D02*
X52027Y-43190D01*
X52563Y-43190D02*
X52787Y-43190D01*
X44850Y-43270D02*
X46275Y-43270D01*
X46757Y-43270D02*
X46800Y-43270D01*
X46800Y-43270D02*
X49250Y-43270D01*
X49250Y-43270D02*
X50050Y-43270D01*
X50050Y-43270D02*
X52107Y-43270D01*
X52643Y-43270D02*
X52782Y-43270D01*
X44837Y-43350D02*
X46354Y-43350D01*
X46678Y-43350D02*
X46800Y-43350D01*
X46800Y-43350D02*
X48254Y-43350D01*
X48477Y-43350D02*
X49250Y-43350D01*
X49250Y-43350D02*
X50050Y-43350D01*
X50050Y-43350D02*
X52187Y-43350D01*
X52723Y-43350D02*
X52796Y-43350D01*
X44798Y-43430D02*
X46800Y-43430D01*
X46800Y-43430D02*
X48146Y-43430D01*
X48586Y-43430D02*
X49250Y-43430D01*
X49250Y-43430D02*
X50050Y-43430D01*
X50050Y-43430D02*
X52267Y-43430D01*
X52803Y-43430D02*
X52834Y-43430D01*
X44350Y-43510D02*
X44427Y-43510D01*
X44707Y-43510D02*
X46800Y-43510D01*
X46800Y-43510D02*
X48100Y-43510D01*
X48631Y-43510D02*
X49250Y-43510D01*
X49250Y-43510D02*
X50050Y-43510D01*
X50050Y-43510D02*
X52347Y-43510D01*
X52883Y-43510D02*
X52927Y-43510D01*
X44350Y-43590D02*
X46800Y-43590D01*
X46800Y-43590D02*
X48082Y-43590D01*
X48650Y-43590D02*
X49136Y-43590D01*
X49496Y-43590D02*
X50050Y-43590D01*
X50050Y-43590D02*
X52427Y-43590D01*
X44350Y-43670D02*
X46800Y-43670D01*
X46800Y-43670D02*
X48084Y-43670D01*
X48650Y-43670D02*
X48650Y-43670D01*
X48650Y-43670D02*
X49067Y-43670D01*
X49564Y-43670D02*
X50050Y-43670D01*
X50050Y-43670D02*
X52507Y-43670D01*
X44350Y-43750D02*
X46800Y-43750D01*
X46800Y-43750D02*
X48117Y-43750D01*
X48616Y-43750D02*
X48650Y-43750D01*
X48650Y-43750D02*
X48704Y-43750D01*
X48927Y-43750D02*
X49033Y-43750D01*
X49597Y-43750D02*
X50050Y-43750D01*
X50050Y-43750D02*
X52587Y-43750D01*
X44350Y-43830D02*
X46800Y-43830D01*
X46800Y-43830D02*
X48184Y-43830D01*
X48548Y-43830D02*
X48596Y-43830D01*
X49600Y-43830D02*
X50050Y-43830D01*
X50050Y-43830D02*
X52667Y-43830D01*
X44350Y-43910D02*
X46800Y-43910D01*
X46800Y-43910D02*
X48550Y-43910D01*
X49583Y-43910D02*
X49600Y-43910D01*
X49600Y-43910D02*
X50050Y-43910D01*
X50050Y-43910D02*
X52747Y-43910D01*
X44350Y-43990D02*
X46800Y-43990D01*
X46800Y-43990D02*
X48532Y-43990D01*
X49538Y-43990D02*
X49600Y-43990D01*
X49600Y-43990D02*
X50050Y-43990D01*
X50050Y-43990D02*
X52827Y-43990D01*
X44350Y-44070D02*
X46800Y-44070D01*
X46800Y-44070D02*
X48534Y-44070D01*
X49100Y-44070D02*
X49200Y-44070D01*
X49433Y-44070D02*
X49600Y-44070D01*
X49600Y-44070D02*
X49656Y-44070D01*
X49974Y-44070D02*
X50050Y-44070D01*
X50050Y-44070D02*
X52056Y-44070D01*
X52374Y-44070D02*
X52907Y-44070D01*
X44350Y-44150D02*
X46800Y-44150D01*
X46800Y-44150D02*
X48567Y-44150D01*
X49066Y-44150D02*
X49576Y-44150D01*
X50056Y-44150D02*
X51976Y-44150D01*
X52456Y-44150D02*
X52987Y-44150D01*
X44350Y-44230D02*
X46800Y-44230D01*
X46800Y-44230D02*
X47096Y-44230D01*
X47436Y-44230D02*
X48634Y-44230D01*
X48998Y-44230D02*
X49542Y-44230D01*
X50089Y-44230D02*
X51942Y-44230D01*
X52489Y-44230D02*
X53026Y-44230D01*
X44350Y-44310D02*
X46800Y-44310D01*
X46800Y-44310D02*
X47021Y-44310D01*
X47510Y-44310D02*
X49532Y-44310D01*
X50100Y-44310D02*
X51932Y-44310D01*
X52500Y-44310D02*
X53026Y-44310D01*
X44350Y-44390D02*
X46800Y-44390D01*
X46800Y-44390D02*
X46987Y-44390D01*
X47543Y-44390D02*
X49542Y-44390D01*
X50091Y-44390D02*
X50100Y-44390D01*
X50100Y-44390D02*
X51942Y-44390D01*
X52491Y-44390D02*
X52500Y-44390D01*
X52500Y-44390D02*
X53026Y-44390D01*
X44350Y-44470D02*
X46800Y-44470D01*
X46800Y-44470D02*
X46982Y-44470D01*
X47550Y-44470D02*
X49575Y-44470D01*
X50057Y-44470D02*
X50100Y-44470D01*
X50100Y-44470D02*
X51975Y-44470D01*
X52457Y-44470D02*
X52500Y-44470D01*
X52500Y-44470D02*
X53026Y-44470D01*
X44350Y-44550D02*
X46800Y-44550D01*
X46800Y-44550D02*
X46996Y-44550D01*
X47537Y-44550D02*
X47550Y-44550D01*
X47550Y-44550D02*
X49654Y-44550D01*
X49978Y-44550D02*
X50100Y-44550D01*
X50100Y-44550D02*
X52054Y-44550D01*
X52378Y-44550D02*
X52500Y-44550D01*
X52500Y-44550D02*
X53026Y-44550D01*
X44350Y-44630D02*
X46800Y-44630D01*
X46800Y-44630D02*
X46995Y-44630D01*
X47498Y-44630D02*
X47550Y-44630D01*
X47550Y-44630D02*
X49996Y-44630D01*
X50336Y-44630D02*
X52500Y-44630D01*
X52500Y-44630D02*
X53026Y-44630D01*
X44350Y-44710D02*
X46800Y-44710D01*
X46800Y-44710D02*
X46950Y-44710D01*
X47481Y-44710D02*
X47550Y-44710D01*
X47550Y-44710D02*
X49921Y-44710D01*
X50410Y-44710D02*
X52500Y-44710D01*
X52500Y-44710D02*
X53026Y-44710D01*
X44350Y-44790D02*
X46800Y-44790D01*
X46800Y-44790D02*
X46932Y-44790D01*
X47500Y-44790D02*
X47550Y-44790D01*
X47550Y-44790D02*
X49887Y-44790D01*
X50443Y-44790D02*
X52500Y-44790D01*
X52500Y-44790D02*
X53026Y-44790D01*
X44350Y-44870D02*
X44456Y-44870D01*
X44774Y-44870D02*
X46800Y-44870D01*
X46800Y-44870D02*
X46934Y-44870D01*
X47500Y-44870D02*
X47550Y-44870D01*
X47550Y-44870D02*
X49882Y-44870D01*
X50724Y-44870D02*
X52500Y-44870D01*
X52500Y-44870D02*
X53027Y-44870D01*
X44350Y-44950D02*
X44376Y-44950D01*
X44856Y-44950D02*
X46226Y-44950D01*
X46606Y-44950D02*
X46800Y-44950D01*
X46800Y-44950D02*
X46967Y-44950D01*
X47466Y-44950D02*
X47550Y-44950D01*
X47550Y-44950D02*
X48576Y-44950D01*
X48956Y-44950D02*
X49896Y-44950D01*
X50806Y-44950D02*
X52500Y-44950D01*
X52500Y-44950D02*
X53048Y-44950D01*
X44889Y-45030D02*
X46163Y-45030D01*
X46668Y-45030D02*
X46800Y-45030D01*
X46800Y-45030D02*
X47034Y-45030D01*
X47398Y-45030D02*
X47550Y-45030D01*
X47550Y-45030D02*
X48513Y-45030D01*
X49018Y-45030D02*
X49934Y-45030D01*
X50839Y-45030D02*
X52500Y-45030D01*
X52500Y-45030D02*
X53112Y-45030D01*
X44900Y-45110D02*
X46132Y-45110D01*
X46700Y-45110D02*
X46800Y-45110D01*
X46800Y-45110D02*
X47550Y-45110D01*
X47550Y-45110D02*
X48482Y-45110D01*
X49050Y-45110D02*
X50027Y-45110D01*
X50850Y-45110D02*
X52500Y-45110D01*
X52500Y-45110D02*
X53115Y-45110D01*
X44891Y-45190D02*
X46132Y-45190D01*
X46700Y-45190D02*
X46800Y-45190D01*
X46800Y-45190D02*
X47550Y-45190D01*
X47550Y-45190D02*
X48482Y-45190D01*
X49050Y-45190D02*
X49678Y-45190D01*
X49853Y-45190D02*
X50292Y-45190D01*
X50841Y-45190D02*
X50850Y-45190D01*
X50850Y-45190D02*
X52500Y-45190D01*
X52500Y-45190D02*
X53115Y-45190D01*
X44350Y-45270D02*
X44375Y-45270D01*
X44857Y-45270D02*
X46154Y-45270D01*
X46678Y-45270D02*
X46700Y-45270D01*
X46700Y-45270D02*
X46800Y-45270D01*
X46800Y-45270D02*
X47550Y-45270D01*
X47550Y-45270D02*
X48504Y-45270D01*
X49028Y-45270D02*
X49050Y-45270D01*
X49050Y-45270D02*
X49556Y-45270D01*
X49976Y-45270D02*
X50325Y-45270D01*
X50807Y-45270D02*
X50850Y-45270D01*
X50850Y-45270D02*
X52500Y-45270D01*
X52500Y-45270D02*
X53115Y-45270D01*
X44350Y-45350D02*
X44454Y-45350D01*
X44778Y-45350D02*
X46204Y-45350D01*
X46628Y-45350D02*
X46700Y-45350D01*
X46700Y-45350D02*
X46800Y-45350D01*
X46800Y-45350D02*
X47550Y-45350D01*
X47550Y-45350D02*
X48554Y-45350D01*
X48978Y-45350D02*
X49050Y-45350D01*
X49050Y-45350D02*
X49504Y-45350D01*
X50027Y-45350D02*
X50404Y-45350D01*
X50728Y-45350D02*
X50850Y-45350D01*
X50850Y-45350D02*
X52500Y-45350D01*
X52500Y-45350D02*
X53115Y-45350D01*
X44350Y-45430D02*
X46324Y-45430D01*
X46509Y-45430D02*
X46700Y-45430D01*
X46700Y-45430D02*
X46800Y-45430D01*
X46800Y-45430D02*
X47550Y-45430D01*
X47550Y-45430D02*
X48674Y-45430D01*
X48859Y-45430D02*
X49050Y-45430D01*
X49050Y-45430D02*
X49482Y-45430D01*
X50130Y-45430D02*
X50850Y-45430D01*
X50850Y-45430D02*
X52500Y-45430D01*
X52500Y-45430D02*
X53115Y-45430D01*
X44350Y-45510D02*
X46700Y-45510D01*
X46700Y-45510D02*
X46800Y-45510D01*
X46800Y-45510D02*
X47550Y-45510D01*
X47550Y-45510D02*
X49050Y-45510D01*
X49050Y-45510D02*
X49080Y-45510D01*
X49351Y-45510D02*
X49482Y-45510D01*
X50266Y-45510D02*
X50850Y-45510D01*
X50850Y-45510D02*
X52500Y-45510D01*
X52500Y-45510D02*
X53115Y-45510D01*
X44350Y-45590D02*
X46700Y-45590D01*
X46700Y-45590D02*
X46800Y-45590D01*
X46800Y-45590D02*
X47550Y-45590D01*
X47550Y-45590D02*
X48986Y-45590D01*
X49446Y-45590D02*
X49513Y-45590D01*
X50323Y-45590D02*
X50850Y-45590D01*
X50850Y-45590D02*
X52500Y-45590D01*
X52500Y-45590D02*
X53098Y-45590D01*
X44350Y-45670D02*
X46700Y-45670D01*
X46700Y-45670D02*
X46800Y-45670D01*
X46800Y-45670D02*
X47550Y-45670D01*
X47550Y-45670D02*
X48946Y-45670D01*
X49485Y-45670D02*
X49574Y-45670D01*
X50350Y-45670D02*
X50850Y-45670D01*
X50850Y-45670D02*
X52500Y-45670D01*
X52500Y-45670D02*
X53017Y-45670D01*
X44350Y-45750D02*
X46700Y-45750D01*
X46700Y-45750D02*
X46800Y-45750D01*
X46800Y-45750D02*
X47550Y-45750D01*
X47550Y-45750D02*
X48932Y-45750D01*
X49500Y-45750D02*
X49782Y-45750D01*
X50350Y-45750D02*
X50850Y-45750D01*
X50850Y-45750D02*
X52500Y-45750D01*
X52500Y-45750D02*
X52937Y-45750D01*
X44350Y-45830D02*
X46700Y-45830D01*
X46700Y-45830D02*
X46800Y-45830D01*
X46800Y-45830D02*
X47550Y-45830D01*
X47550Y-45830D02*
X48938Y-45830D01*
X49495Y-45830D02*
X49500Y-45830D01*
X49500Y-45830D02*
X49809Y-45830D01*
X50324Y-45830D02*
X50350Y-45830D01*
X50350Y-45830D02*
X50850Y-45830D01*
X50850Y-45830D02*
X51852Y-45830D01*
X51980Y-45830D02*
X52500Y-45830D01*
X52500Y-45830D02*
X52857Y-45830D01*
X44350Y-45910D02*
X46700Y-45910D01*
X46700Y-45910D02*
X46800Y-45910D01*
X46800Y-45910D02*
X47550Y-45910D01*
X47550Y-45910D02*
X48971Y-45910D01*
X49462Y-45910D02*
X49500Y-45910D01*
X49500Y-45910D02*
X49864Y-45910D01*
X50268Y-45910D02*
X50350Y-45910D01*
X50350Y-45910D02*
X50850Y-45910D01*
X50850Y-45910D02*
X51716Y-45910D01*
X52116Y-45910D02*
X52500Y-45910D01*
X52500Y-45910D02*
X52777Y-45910D01*
X44350Y-45990D02*
X46700Y-45990D01*
X46700Y-45990D02*
X46800Y-45990D01*
X46800Y-45990D02*
X47550Y-45990D01*
X47550Y-45990D02*
X49044Y-45990D01*
X49388Y-45990D02*
X49500Y-45990D01*
X49500Y-45990D02*
X49998Y-45990D01*
X50135Y-45990D02*
X50350Y-45990D01*
X50350Y-45990D02*
X50850Y-45990D01*
X50850Y-45990D02*
X51659Y-45990D01*
X52173Y-45990D02*
X52500Y-45990D01*
X52500Y-45990D02*
X52697Y-45990D01*
X44350Y-46070D02*
X46700Y-46070D01*
X46700Y-46070D02*
X46800Y-46070D01*
X46800Y-46070D02*
X47550Y-46070D01*
X47550Y-46070D02*
X49500Y-46070D01*
X49500Y-46070D02*
X50350Y-46070D01*
X50350Y-46070D02*
X50850Y-46070D01*
X50850Y-46070D02*
X51632Y-46070D01*
X52200Y-46070D02*
X52500Y-46070D01*
X52500Y-46070D02*
X52617Y-46070D01*
X44350Y-46150D02*
X46700Y-46150D01*
X46700Y-46150D02*
X46800Y-46150D01*
X46800Y-46150D02*
X47550Y-46150D01*
X47550Y-46150D02*
X49500Y-46150D01*
X49500Y-46150D02*
X50350Y-46150D01*
X50350Y-46150D02*
X50850Y-46150D01*
X50850Y-46150D02*
X51632Y-46150D01*
X52200Y-46150D02*
X52500Y-46150D01*
X52500Y-46150D02*
X52537Y-46150D01*
X44350Y-46230D02*
X46700Y-46230D01*
X46700Y-46230D02*
X46800Y-46230D01*
X46800Y-46230D02*
X47550Y-46230D01*
X47550Y-46230D02*
X49500Y-46230D01*
X49500Y-46230D02*
X50350Y-46230D01*
X50350Y-46230D02*
X50850Y-46230D01*
X50850Y-46230D02*
X51659Y-46230D01*
X52174Y-46230D02*
X52457Y-46230D01*
X44350Y-46310D02*
X46700Y-46310D01*
X46700Y-46310D02*
X46800Y-46310D01*
X46800Y-46310D02*
X47550Y-46310D01*
X47550Y-46310D02*
X49500Y-46310D01*
X49500Y-46310D02*
X50350Y-46310D01*
X50350Y-46310D02*
X50850Y-46310D01*
X50850Y-46310D02*
X51714Y-46310D01*
X52118Y-46310D02*
X52377Y-46310D01*
X44350Y-46390D02*
X46236Y-46390D01*
X46596Y-46390D02*
X46700Y-46390D01*
X46700Y-46390D02*
X46800Y-46390D01*
X46800Y-46390D02*
X47550Y-46390D01*
X47550Y-46390D02*
X49500Y-46390D01*
X49500Y-46390D02*
X50350Y-46390D01*
X50350Y-46390D02*
X50850Y-46390D01*
X50850Y-46390D02*
X51546Y-46390D01*
X51985Y-46390D02*
X52297Y-46390D01*
X44350Y-46470D02*
X46167Y-46470D01*
X46664Y-46470D02*
X46700Y-46470D01*
X46700Y-46470D02*
X46800Y-46470D01*
X46800Y-46470D02*
X47550Y-46470D01*
X47550Y-46470D02*
X49500Y-46470D01*
X49500Y-46470D02*
X50350Y-46470D01*
X50350Y-46470D02*
X50850Y-46470D01*
X50850Y-46470D02*
X51471Y-46470D01*
X51960Y-46470D02*
X52217Y-46470D01*
X44350Y-46550D02*
X46133Y-46550D01*
X46697Y-46550D02*
X46700Y-46550D01*
X46700Y-46550D02*
X46800Y-46550D01*
X46800Y-46550D02*
X47550Y-46550D01*
X47550Y-46550D02*
X47976Y-46550D01*
X48356Y-46550D02*
X49476Y-46550D01*
X49856Y-46550D02*
X50350Y-46550D01*
X50350Y-46550D02*
X50850Y-46550D01*
X50850Y-46550D02*
X51437Y-46550D01*
X51993Y-46550D02*
X52137Y-46550D01*
X44350Y-46630D02*
X46132Y-46630D01*
X46700Y-46630D02*
X46800Y-46630D01*
X46800Y-46630D02*
X47550Y-46630D01*
X47550Y-46630D02*
X47913Y-46630D01*
X48418Y-46630D02*
X49413Y-46630D01*
X49918Y-46630D02*
X50350Y-46630D01*
X50350Y-46630D02*
X50696Y-46630D01*
X51036Y-46630D02*
X51432Y-46630D01*
X52000Y-46630D02*
X52057Y-46630D01*
X44350Y-46710D02*
X46150Y-46710D01*
X46683Y-46710D02*
X46700Y-46710D01*
X46700Y-46710D02*
X46800Y-46710D01*
X46800Y-46710D02*
X47550Y-46710D01*
X47550Y-46710D02*
X47882Y-46710D01*
X48450Y-46710D02*
X49382Y-46710D01*
X49950Y-46710D02*
X50350Y-46710D01*
X50350Y-46710D02*
X50621Y-46710D01*
X51110Y-46710D02*
X51446Y-46710D01*
X44350Y-46790D02*
X46194Y-46790D01*
X46638Y-46790D02*
X46700Y-46790D01*
X46700Y-46790D02*
X46800Y-46790D01*
X46800Y-46790D02*
X47550Y-46790D01*
X47550Y-46790D02*
X47882Y-46790D01*
X48450Y-46790D02*
X49328Y-46790D01*
X49950Y-46790D02*
X50350Y-46790D01*
X50350Y-46790D02*
X50587Y-46790D01*
X51143Y-46790D02*
X51484Y-46790D01*
X44350Y-46870D02*
X46300Y-46870D01*
X46533Y-46870D02*
X46700Y-46870D01*
X46700Y-46870D02*
X46800Y-46870D01*
X46800Y-46870D02*
X47550Y-46870D01*
X47550Y-46870D02*
X47904Y-46870D01*
X48428Y-46870D02*
X48450Y-46870D01*
X48450Y-46870D02*
X49206Y-46870D01*
X49928Y-46870D02*
X50350Y-46870D01*
X50350Y-46870D02*
X50582Y-46870D01*
X51150Y-46870D02*
X51577Y-46870D01*
X44350Y-46950D02*
X46700Y-46950D01*
X46700Y-46950D02*
X46800Y-46950D01*
X46800Y-46950D02*
X47550Y-46950D01*
X47550Y-46950D02*
X47954Y-46950D01*
X48378Y-46950D02*
X48450Y-46950D01*
X48450Y-46950D02*
X49154Y-46950D01*
X49878Y-46950D02*
X50350Y-46950D01*
X50350Y-46950D02*
X50596Y-46950D01*
X51137Y-46950D02*
X51737Y-46950D01*
X44350Y-47030D02*
X46700Y-47030D01*
X46700Y-47030D02*
X46800Y-47030D01*
X46800Y-47030D02*
X47550Y-47030D01*
X47550Y-47030D02*
X48074Y-47030D01*
X48259Y-47030D02*
X48450Y-47030D01*
X48450Y-47030D02*
X49132Y-47030D01*
X49759Y-47030D02*
X50350Y-47030D01*
X50350Y-47030D02*
X50634Y-47030D01*
X51098Y-47030D02*
X51658Y-47030D01*
X53415Y-42423D02*
X53350Y-42488D01*
X53350Y-42418D01*
X53350Y-42305D01*
X53307Y-42201D01*
X53227Y-42121D01*
X53123Y-42077D01*
X53010Y-42077D01*
X52906Y-42120D01*
X52826Y-42200D01*
X52782Y-42304D01*
X52782Y-42417D01*
X52825Y-42521D01*
X52905Y-42601D01*
X53009Y-42645D01*
X53122Y-42645D01*
X53226Y-42602D01*
X53306Y-42522D01*
X53350Y-42418D01*
X53350Y-42488D01*
X53319Y-42519D01*
X53317Y-42521D01*
X53269Y-42569D01*
X53229Y-42629D01*
X53215Y-42700D01*
X53215Y-42800D01*
X53215Y-43000D01*
X53218Y-43017D01*
X53123Y-42977D01*
X53010Y-42977D01*
X52906Y-43020D01*
X52826Y-43100D01*
X52782Y-43204D01*
X52782Y-43317D01*
X52825Y-43421D01*
X52905Y-43501D01*
X52989Y-43536D01*
X52976Y-43550D01*
X52960Y-43587D01*
X51856Y-42483D01*
X51856Y-42309D01*
X51868Y-42297D01*
X51905Y-42209D01*
X51905Y-42114D01*
X51869Y-42026D01*
X51802Y-41959D01*
X51714Y-41922D01*
X51619Y-41922D01*
X51531Y-41958D01*
X51464Y-42025D01*
X51427Y-42113D01*
X51427Y-42208D01*
X51463Y-42296D01*
X51476Y-42309D01*
X51476Y-42561D01*
X51490Y-42634D01*
X51532Y-42695D01*
X53026Y-44189D01*
X53026Y-44866D01*
X53040Y-44939D01*
X53082Y-45000D01*
X53115Y-45033D01*
X53115Y-45573D01*
X53069Y-45619D01*
X52500Y-46187D01*
X52500Y-44368D01*
X52500Y-44255D01*
X52457Y-44151D01*
X52377Y-44071D01*
X52273Y-44027D01*
X52160Y-44027D01*
X52056Y-44070D01*
X51976Y-44150D01*
X51932Y-44254D01*
X51932Y-44367D01*
X51975Y-44471D01*
X52055Y-44551D01*
X52159Y-44595D01*
X52272Y-44595D01*
X52376Y-44552D01*
X52456Y-44472D01*
X52500Y-44368D01*
X52500Y-46187D01*
X51992Y-46695D01*
X52000Y-46678D01*
X52000Y-46565D01*
X51957Y-46461D01*
X51891Y-46395D01*
X51972Y-46395D01*
X52076Y-46352D01*
X52156Y-46272D01*
X52200Y-46168D01*
X52200Y-46055D01*
X52157Y-45951D01*
X52077Y-45871D01*
X51973Y-45827D01*
X51860Y-45827D01*
X51756Y-45870D01*
X51676Y-45950D01*
X51632Y-46054D01*
X51632Y-46167D01*
X51675Y-46271D01*
X51741Y-46337D01*
X51660Y-46337D01*
X51556Y-46380D01*
X51476Y-46460D01*
X51432Y-46564D01*
X51432Y-46677D01*
X51475Y-46781D01*
X51555Y-46861D01*
X51659Y-46905D01*
X51772Y-46905D01*
X51790Y-46897D01*
X51719Y-46969D01*
X51638Y-47050D01*
X51078Y-47050D01*
X51106Y-47022D01*
X51150Y-46918D01*
X51150Y-46805D01*
X51107Y-46701D01*
X51027Y-46621D01*
X50923Y-46577D01*
X50850Y-46577D01*
X50850Y-45168D01*
X50850Y-45055D01*
X50807Y-44951D01*
X50727Y-44871D01*
X50623Y-44827D01*
X50510Y-44827D01*
X50450Y-44851D01*
X50450Y-44805D01*
X50407Y-44701D01*
X50327Y-44621D01*
X50223Y-44577D01*
X50110Y-44577D01*
X50100Y-44581D01*
X50100Y-44368D01*
X50100Y-44255D01*
X50057Y-44151D01*
X50050Y-44144D01*
X50050Y-42418D01*
X50050Y-42305D01*
X50007Y-42201D01*
X49927Y-42121D01*
X49823Y-42077D01*
X49710Y-42077D01*
X49606Y-42120D01*
X49526Y-42200D01*
X49482Y-42304D01*
X49482Y-42417D01*
X49525Y-42521D01*
X49605Y-42601D01*
X49709Y-42645D01*
X49822Y-42645D01*
X49926Y-42602D01*
X50006Y-42522D01*
X50050Y-42418D01*
X50050Y-44144D01*
X49977Y-44071D01*
X49873Y-44027D01*
X49760Y-44027D01*
X49656Y-44070D01*
X49600Y-44126D01*
X49600Y-43868D01*
X49600Y-43755D01*
X49557Y-43651D01*
X49477Y-43571D01*
X49373Y-43527D01*
X49260Y-43527D01*
X49250Y-43531D01*
X49250Y-42218D01*
X49250Y-42105D01*
X49207Y-42001D01*
X49127Y-41921D01*
X49023Y-41877D01*
X48910Y-41877D01*
X48806Y-41920D01*
X48726Y-42000D01*
X48682Y-42104D01*
X48682Y-42217D01*
X48725Y-42321D01*
X48805Y-42401D01*
X48909Y-42445D01*
X49022Y-42445D01*
X49126Y-42402D01*
X49206Y-42322D01*
X49250Y-42218D01*
X49250Y-43531D01*
X49156Y-43570D01*
X49076Y-43650D01*
X49032Y-43754D01*
X49032Y-43826D01*
X48977Y-43771D01*
X48873Y-43727D01*
X48760Y-43727D01*
X48656Y-43770D01*
X48650Y-43776D01*
X48650Y-43668D01*
X48650Y-43555D01*
X48607Y-43451D01*
X48527Y-43371D01*
X48423Y-43327D01*
X48310Y-43327D01*
X48206Y-43370D01*
X48126Y-43450D01*
X48082Y-43554D01*
X48082Y-43667D01*
X48125Y-43771D01*
X48205Y-43851D01*
X48309Y-43895D01*
X48422Y-43895D01*
X48526Y-43852D01*
X48606Y-43772D01*
X48650Y-43668D01*
X48650Y-43776D01*
X48576Y-43850D01*
X48532Y-43954D01*
X48532Y-44067D01*
X48575Y-44171D01*
X48655Y-44251D01*
X48759Y-44295D01*
X48872Y-44295D01*
X48976Y-44252D01*
X49056Y-44172D01*
X49100Y-44068D01*
X49100Y-43996D01*
X49155Y-44051D01*
X49259Y-44095D01*
X49372Y-44095D01*
X49476Y-44052D01*
X49556Y-43972D01*
X49600Y-43868D01*
X49600Y-44126D01*
X49576Y-44150D01*
X49532Y-44254D01*
X49532Y-44367D01*
X49575Y-44471D01*
X49655Y-44551D01*
X49759Y-44595D01*
X49872Y-44595D01*
X49976Y-44552D01*
X50056Y-44472D01*
X50100Y-44368D01*
X50100Y-44581D01*
X50006Y-44620D01*
X49926Y-44700D01*
X49882Y-44804D01*
X49882Y-44917D01*
X49925Y-45021D01*
X50005Y-45101D01*
X50109Y-45145D01*
X50222Y-45145D01*
X50282Y-45120D01*
X50282Y-45167D01*
X50325Y-45271D01*
X50405Y-45351D01*
X50509Y-45395D01*
X50622Y-45395D01*
X50726Y-45352D01*
X50806Y-45272D01*
X50850Y-45168D01*
X50850Y-46577D01*
X50810Y-46577D01*
X50706Y-46620D01*
X50626Y-46700D01*
X50582Y-46804D01*
X50582Y-46917D01*
X50625Y-47021D01*
X50654Y-47050D01*
X50350Y-47050D01*
X50350Y-45768D01*
X50350Y-45655D01*
X50307Y-45551D01*
X50227Y-45471D01*
X50123Y-45427D01*
X50050Y-45427D01*
X50050Y-45405D01*
X50007Y-45301D01*
X49927Y-45221D01*
X49823Y-45177D01*
X49710Y-45177D01*
X49606Y-45220D01*
X49526Y-45300D01*
X49482Y-45404D01*
X49482Y-45517D01*
X49525Y-45621D01*
X49605Y-45701D01*
X49709Y-45745D01*
X49782Y-45745D01*
X49782Y-45767D01*
X49825Y-45871D01*
X49905Y-45951D01*
X50009Y-45995D01*
X50122Y-45995D01*
X50226Y-45952D01*
X50306Y-45872D01*
X50350Y-45768D01*
X50350Y-47050D01*
X49700Y-47050D01*
X49700Y-47045D01*
X49722Y-47045D01*
X49826Y-47002D01*
X49906Y-46922D01*
X49950Y-46818D01*
X49950Y-46705D01*
X49907Y-46601D01*
X49827Y-46521D01*
X49723Y-46477D01*
X49610Y-46477D01*
X49506Y-46520D01*
X49500Y-46526D01*
X49500Y-45818D01*
X49500Y-45705D01*
X49457Y-45601D01*
X49377Y-45521D01*
X49273Y-45477D01*
X49160Y-45477D01*
X49056Y-45520D01*
X49050Y-45526D01*
X49050Y-45218D01*
X49050Y-45105D01*
X49007Y-45001D01*
X48927Y-44921D01*
X48823Y-44877D01*
X48710Y-44877D01*
X48606Y-44920D01*
X48526Y-45000D01*
X48482Y-45104D01*
X48482Y-45217D01*
X48525Y-45321D01*
X48605Y-45401D01*
X48709Y-45445D01*
X48822Y-45445D01*
X48926Y-45402D01*
X49006Y-45322D01*
X49050Y-45218D01*
X49050Y-45526D01*
X48976Y-45600D01*
X48932Y-45704D01*
X48932Y-45817D01*
X48975Y-45921D01*
X49055Y-46001D01*
X49159Y-46045D01*
X49272Y-46045D01*
X49376Y-46002D01*
X49456Y-45922D01*
X49500Y-45818D01*
X49500Y-46526D01*
X49426Y-46600D01*
X49382Y-46704D01*
X49382Y-46777D01*
X49360Y-46777D01*
X49256Y-46820D01*
X49176Y-46900D01*
X49132Y-47004D01*
X49132Y-47050D01*
X48450Y-47050D01*
X48450Y-46818D01*
X48450Y-46705D01*
X48407Y-46601D01*
X48327Y-46521D01*
X48223Y-46477D01*
X48110Y-46477D01*
X48006Y-46520D01*
X47926Y-46600D01*
X47882Y-46704D01*
X47882Y-46817D01*
X47925Y-46921D01*
X48005Y-47001D01*
X48109Y-47045D01*
X48222Y-47045D01*
X48326Y-47002D01*
X48406Y-46922D01*
X48450Y-46818D01*
X48450Y-47050D01*
X47550Y-47050D01*
X47550Y-44518D01*
X47550Y-44405D01*
X47507Y-44301D01*
X47427Y-44221D01*
X47323Y-44177D01*
X47210Y-44177D01*
X47106Y-44220D01*
X47026Y-44300D01*
X46982Y-44404D01*
X46982Y-44517D01*
X47019Y-44606D01*
X46976Y-44650D01*
X46932Y-44754D01*
X46932Y-44867D01*
X46975Y-44971D01*
X47055Y-45051D01*
X47159Y-45095D01*
X47272Y-45095D01*
X47376Y-45052D01*
X47456Y-44972D01*
X47500Y-44868D01*
X47500Y-44755D01*
X47462Y-44665D01*
X47506Y-44622D01*
X47550Y-44518D01*
X47550Y-47050D01*
X46800Y-47050D01*
X46800Y-43168D01*
X46800Y-43055D01*
X46757Y-42951D01*
X46677Y-42871D01*
X46573Y-42827D01*
X46460Y-42827D01*
X46356Y-42870D01*
X46276Y-42950D01*
X46232Y-43054D01*
X46232Y-43167D01*
X46275Y-43271D01*
X46355Y-43351D01*
X46459Y-43395D01*
X46572Y-43395D01*
X46676Y-43352D01*
X46756Y-43272D01*
X46800Y-43168D01*
X46800Y-47050D01*
X46700Y-47050D01*
X46700Y-46668D01*
X46700Y-46555D01*
X46700Y-45218D01*
X46700Y-45105D01*
X46657Y-45001D01*
X46577Y-44921D01*
X46473Y-44877D01*
X46360Y-44877D01*
X46256Y-44920D01*
X46176Y-45000D01*
X46132Y-45104D01*
X46132Y-45217D01*
X46175Y-45321D01*
X46255Y-45401D01*
X46359Y-45445D01*
X46472Y-45445D01*
X46576Y-45402D01*
X46656Y-45322D01*
X46700Y-45218D01*
X46700Y-46555D01*
X46657Y-46451D01*
X46577Y-46371D01*
X46473Y-46327D01*
X46360Y-46327D01*
X46256Y-46370D01*
X46176Y-46450D01*
X46132Y-46554D01*
X46132Y-46667D01*
X46175Y-46771D01*
X46255Y-46851D01*
X46359Y-46895D01*
X46472Y-46895D01*
X46576Y-46852D01*
X46656Y-46772D01*
X46700Y-46668D01*
X46700Y-47050D01*
X44350Y-47050D01*
X44350Y-45210D01*
X44375Y-45271D01*
X44455Y-45351D01*
X44559Y-45395D01*
X44672Y-45395D01*
X44776Y-45352D01*
X44856Y-45272D01*
X44900Y-45168D01*
X44900Y-45055D01*
X44857Y-44951D01*
X44777Y-44871D01*
X44673Y-44827D01*
X44560Y-44827D01*
X44456Y-44870D01*
X44376Y-44950D01*
X44350Y-45011D01*
X44350Y-43446D01*
X44405Y-43501D01*
X44509Y-43545D01*
X44622Y-43545D01*
X44726Y-43502D01*
X44806Y-43422D01*
X44850Y-43318D01*
X44850Y-43205D01*
X44807Y-43101D01*
X44727Y-43021D01*
X44623Y-42977D01*
X44510Y-42977D01*
X44406Y-43020D01*
X44350Y-43076D01*
X44350Y-41350D01*
X50145Y-41350D01*
X50175Y-41421D01*
X50255Y-41501D01*
X50359Y-41545D01*
X50472Y-41545D01*
X50576Y-41502D01*
X50656Y-41422D01*
X50686Y-41350D01*
X53184Y-41350D01*
X53166Y-41393D01*
X53166Y-41506D01*
X53209Y-41610D01*
X53289Y-41690D01*
X53373Y-41725D01*
X53360Y-41739D01*
X53316Y-41843D01*
X53316Y-41956D01*
X53359Y-42060D01*
X53415Y-42116D01*
X53415Y-42300D01*
X53415Y-42423D01*
G54D10*
G36*
X47866Y-54711D02*
X46466Y-54711D01*
X46466Y-50711D01*
X47866Y-50711D01*
X47866Y-54711D01*
X47866Y-54711D01*
G37*
G54D17*
X47866Y-54711D02*
X46466Y-54711D01*
X46466Y-50711D01*
X47866Y-50711D01*
X47866Y-54711D01*
G54D10*
G36*
X50515Y-50711D02*
X50497Y-52149D01*
X50490Y-52161D01*
X50476Y-52234D01*
X50476Y-53961D01*
X50467Y-54711D01*
X49067Y-54711D01*
X49115Y-50711D01*
X50515Y-50711D01*
X50515Y-50711D01*
G37*
G54D17*
X50515Y-50711D02*
X50497Y-52149D01*
X50490Y-52161D01*
X50476Y-52234D01*
X50476Y-53961D01*
X50467Y-54711D01*
X49067Y-54711D01*
X49115Y-50711D01*
X50515Y-50711D01*
G54D10*
G36*
X53066Y-54711D02*
X51666Y-54711D01*
X51666Y-50711D01*
X53066Y-50711D01*
X53066Y-54711D01*
X53066Y-54711D01*
G37*
G54D17*
X53066Y-54711D02*
X51666Y-54711D01*
X51666Y-50711D01*
X53066Y-50711D01*
X53066Y-54711D01*
M02*
