G04 (created by PCBNEW-RS274X (2012-01-19 BZR 3256)-stable) date 9/11/2012 11:00:16 PM*
G01*
G70*
G90*
%MOIN*%
G04 Gerber Fmt 3.4, Leading zero omitted, Abs format*
%FSLAX34Y34*%
G04 APERTURE LIST*
%ADD10C,0.001000*%
%ADD11C,0.007500*%
%ADD12C,0.008000*%
%ADD13C,0.015000*%
%ADD14C,0.007900*%
%ADD15C,0.005000*%
%ADD16C,0.003000*%
%ADD17R,0.052000X0.052000*%
%ADD18R,0.070000X0.070000*%
%ADD19R,0.040000X0.050000*%
%ADD20R,0.055000X0.075000*%
%ADD21R,0.075000X0.055000*%
%ADD22R,0.021700X0.017700*%
%ADD23R,0.017700X0.021700*%
%ADD24R,0.022000X0.047000*%
%ADD25R,0.041400X0.029600*%
%ADD26R,0.033000X0.033000*%
%ADD27R,0.198900X0.163400*%
%ADD28R,0.021700X0.043300*%
%ADD29R,0.027000X0.022000*%
%ADD30R,0.022000X0.027000*%
%ADD31R,0.035700X0.043600*%
%ADD32C,0.010000*%
G04 APERTURE END LIST*
G54D10*
G54D11*
X49073Y-44182D02*
X49073Y-43882D01*
X49245Y-44182D01*
X49245Y-43882D01*
X49559Y-44182D02*
X49459Y-44040D01*
X49387Y-44182D02*
X49387Y-43882D01*
X49502Y-43882D01*
X49530Y-43897D01*
X49545Y-43911D01*
X49559Y-43940D01*
X49559Y-43982D01*
X49545Y-44011D01*
X49530Y-44025D01*
X49502Y-44040D01*
X49387Y-44040D01*
X49673Y-44168D02*
X49716Y-44182D01*
X49787Y-44182D01*
X49816Y-44168D01*
X49830Y-44154D01*
X49845Y-44125D01*
X49845Y-44097D01*
X49830Y-44068D01*
X49816Y-44054D01*
X49787Y-44040D01*
X49730Y-44025D01*
X49702Y-44011D01*
X49687Y-43997D01*
X49673Y-43968D01*
X49673Y-43940D01*
X49687Y-43911D01*
X49702Y-43897D01*
X49730Y-43882D01*
X49802Y-43882D01*
X49845Y-43897D01*
X49931Y-43882D02*
X50102Y-43882D01*
X50016Y-44182D02*
X50016Y-43882D01*
X51623Y-44118D02*
X51637Y-44075D01*
X51637Y-44004D01*
X51623Y-43975D01*
X51609Y-43961D01*
X51580Y-43946D01*
X51552Y-43946D01*
X51523Y-43961D01*
X51509Y-43975D01*
X51495Y-44004D01*
X51480Y-44061D01*
X51466Y-44089D01*
X51452Y-44104D01*
X51423Y-44118D01*
X51395Y-44118D01*
X51366Y-44104D01*
X51352Y-44089D01*
X51337Y-44061D01*
X51337Y-43989D01*
X51352Y-43946D01*
X51337Y-43846D02*
X51637Y-43775D01*
X51423Y-43718D01*
X51637Y-43660D01*
X51337Y-43589D01*
X51637Y-43475D02*
X51337Y-43475D01*
X51337Y-43403D01*
X51352Y-43360D01*
X51380Y-43332D01*
X51409Y-43317D01*
X51466Y-43303D01*
X51509Y-43303D01*
X51566Y-43317D01*
X51595Y-43332D01*
X51623Y-43360D01*
X51637Y-43403D01*
X51637Y-43475D01*
X50623Y-44147D02*
X50637Y-44104D01*
X50637Y-44033D01*
X50623Y-44004D01*
X50609Y-43990D01*
X50580Y-43975D01*
X50552Y-43975D01*
X50523Y-43990D01*
X50509Y-44004D01*
X50495Y-44033D01*
X50480Y-44090D01*
X50466Y-44118D01*
X50452Y-44133D01*
X50423Y-44147D01*
X50395Y-44147D01*
X50366Y-44133D01*
X50352Y-44118D01*
X50337Y-44090D01*
X50337Y-44018D01*
X50352Y-43975D01*
X50609Y-43675D02*
X50623Y-43689D01*
X50637Y-43732D01*
X50637Y-43761D01*
X50623Y-43804D01*
X50595Y-43832D01*
X50566Y-43847D01*
X50509Y-43861D01*
X50466Y-43861D01*
X50409Y-43847D01*
X50380Y-43832D01*
X50352Y-43804D01*
X50337Y-43761D01*
X50337Y-43732D01*
X50352Y-43689D01*
X50366Y-43675D01*
X50637Y-43547D02*
X50337Y-43547D01*
X50637Y-43375D02*
X50466Y-43504D01*
X50337Y-43375D02*
X50509Y-43547D01*
X44474Y-43482D02*
X44531Y-43482D01*
X44559Y-43497D01*
X44588Y-43525D01*
X44602Y-43582D01*
X44602Y-43682D01*
X44588Y-43740D01*
X44559Y-43768D01*
X44531Y-43782D01*
X44474Y-43782D01*
X44445Y-43768D01*
X44416Y-43740D01*
X44402Y-43682D01*
X44402Y-43582D01*
X44416Y-43525D01*
X44445Y-43497D01*
X44474Y-43482D01*
X44730Y-43582D02*
X44730Y-43882D01*
X44730Y-43597D02*
X44759Y-43582D01*
X44816Y-43582D01*
X44845Y-43597D01*
X44859Y-43611D01*
X44873Y-43640D01*
X44873Y-43725D01*
X44859Y-43754D01*
X44845Y-43768D01*
X44816Y-43782D01*
X44759Y-43782D01*
X44730Y-43768D01*
X45116Y-43768D02*
X45087Y-43782D01*
X45030Y-43782D01*
X45001Y-43768D01*
X44987Y-43740D01*
X44987Y-43625D01*
X45001Y-43597D01*
X45030Y-43582D01*
X45087Y-43582D01*
X45116Y-43597D01*
X45130Y-43625D01*
X45130Y-43654D01*
X44987Y-43682D01*
X45258Y-43582D02*
X45258Y-43782D01*
X45258Y-43611D02*
X45273Y-43597D01*
X45301Y-43582D01*
X45344Y-43582D01*
X45373Y-43597D01*
X45387Y-43625D01*
X45387Y-43782D01*
X45529Y-43625D02*
X45629Y-43625D01*
X45672Y-43782D02*
X45529Y-43782D01*
X45529Y-43482D01*
X45672Y-43482D01*
X45786Y-43768D02*
X45829Y-43782D01*
X45900Y-43782D01*
X45929Y-43768D01*
X45943Y-43754D01*
X45958Y-43725D01*
X45958Y-43697D01*
X45943Y-43668D01*
X45929Y-43654D01*
X45900Y-43640D01*
X45843Y-43625D01*
X45815Y-43611D01*
X45800Y-43597D01*
X45786Y-43568D01*
X45786Y-43540D01*
X45800Y-43511D01*
X45815Y-43497D01*
X45843Y-43482D01*
X45915Y-43482D01*
X45958Y-43497D01*
X46258Y-43754D02*
X46244Y-43768D01*
X46201Y-43782D01*
X46172Y-43782D01*
X46129Y-43768D01*
X46101Y-43740D01*
X46086Y-43711D01*
X46072Y-43654D01*
X46072Y-43611D01*
X46086Y-43554D01*
X46101Y-43525D01*
X46129Y-43497D01*
X46172Y-43482D01*
X46201Y-43482D01*
X46244Y-43497D01*
X46258Y-43511D01*
X46587Y-43582D02*
X46658Y-43782D01*
X46730Y-43582D01*
X46902Y-43482D02*
X46930Y-43482D01*
X46959Y-43497D01*
X46973Y-43511D01*
X46987Y-43540D01*
X47002Y-43597D01*
X47002Y-43668D01*
X46987Y-43725D01*
X46973Y-43754D01*
X46959Y-43768D01*
X46930Y-43782D01*
X46902Y-43782D01*
X46873Y-43768D01*
X46859Y-43754D01*
X46844Y-43725D01*
X46830Y-43668D01*
X46830Y-43597D01*
X46844Y-43540D01*
X46859Y-43511D01*
X46873Y-43497D01*
X46902Y-43482D01*
X47130Y-43754D02*
X47145Y-43768D01*
X47130Y-43782D01*
X47116Y-43768D01*
X47130Y-43754D01*
X47130Y-43782D01*
X47431Y-43782D02*
X47259Y-43782D01*
X47345Y-43782D02*
X47345Y-43482D01*
X47316Y-43525D01*
X47288Y-43554D01*
X47259Y-43568D01*
X47687Y-42468D02*
X47687Y-42611D01*
X47830Y-42625D01*
X47816Y-42611D01*
X47802Y-42582D01*
X47802Y-42511D01*
X47816Y-42482D01*
X47830Y-42468D01*
X47859Y-42453D01*
X47930Y-42453D01*
X47959Y-42468D01*
X47973Y-42482D01*
X47987Y-42511D01*
X47987Y-42582D01*
X47973Y-42611D01*
X47959Y-42625D01*
X47687Y-42367D02*
X47987Y-42267D01*
X47687Y-42167D01*
X46987Y-42461D02*
X46845Y-42561D01*
X46987Y-42633D02*
X46687Y-42633D01*
X46687Y-42518D01*
X46702Y-42490D01*
X46716Y-42475D01*
X46745Y-42461D01*
X46787Y-42461D01*
X46816Y-42475D01*
X46830Y-42490D01*
X46845Y-42518D01*
X46845Y-42633D01*
X46687Y-42361D02*
X46987Y-42161D01*
X46687Y-42161D02*
X46987Y-42361D01*
X45637Y-42639D02*
X45637Y-42468D01*
X45937Y-42554D02*
X45637Y-42554D01*
X45637Y-42396D02*
X45937Y-42196D01*
X45637Y-42196D02*
X45937Y-42396D01*
G54D12*
X44324Y-52648D02*
X44629Y-52648D01*
X44477Y-52800D02*
X44477Y-52495D01*
X44953Y-52590D02*
X45010Y-52609D01*
X45029Y-52628D01*
X45048Y-52667D01*
X45048Y-52724D01*
X45029Y-52762D01*
X45010Y-52781D01*
X44972Y-52800D01*
X44819Y-52800D01*
X44819Y-52400D01*
X44953Y-52400D01*
X44991Y-52419D01*
X45010Y-52438D01*
X45029Y-52476D01*
X45029Y-52514D01*
X45010Y-52552D01*
X44991Y-52571D01*
X44953Y-52590D01*
X44819Y-52590D01*
X45200Y-52686D02*
X45391Y-52686D01*
X45162Y-52800D02*
X45295Y-52400D01*
X45429Y-52800D01*
X45505Y-52400D02*
X45734Y-52400D01*
X45619Y-52800D02*
X45619Y-52400D01*
X50204Y-42523D02*
X50204Y-42123D01*
X50357Y-42123D01*
X50395Y-42142D01*
X50414Y-42161D01*
X50433Y-42199D01*
X50433Y-42256D01*
X50414Y-42294D01*
X50395Y-42313D01*
X50357Y-42332D01*
X50204Y-42332D01*
X50566Y-42123D02*
X50661Y-42523D01*
X50738Y-42237D01*
X50814Y-42523D01*
X50909Y-42123D01*
X51061Y-42523D02*
X51061Y-42123D01*
X51195Y-42409D01*
X51328Y-42123D01*
X51328Y-42523D01*
G54D13*
X44016Y-40961D02*
X44016Y-54961D01*
X54016Y-40961D02*
X44016Y-40961D01*
X54016Y-54961D02*
X54016Y-40961D01*
X44016Y-54961D02*
X54016Y-54961D01*
G54D14*
X53116Y-45011D02*
X53116Y-44211D01*
X53916Y-45011D02*
X49116Y-45011D01*
X49116Y-45011D02*
X49116Y-44211D01*
X49116Y-44211D02*
X53916Y-44211D01*
X53916Y-44211D02*
X53916Y-45011D01*
X49416Y-42061D02*
X49416Y-41261D01*
X50216Y-42061D02*
X44416Y-42061D01*
X44416Y-42061D02*
X44416Y-41261D01*
X44416Y-41261D02*
X50216Y-41261D01*
X50216Y-41261D02*
X50216Y-42061D01*
X51316Y-41261D02*
X51316Y-42061D01*
X50616Y-41261D02*
X53316Y-41261D01*
X53316Y-41261D02*
X53316Y-42061D01*
X53316Y-42061D02*
X50516Y-42061D01*
X50516Y-42061D02*
X50516Y-41261D01*
X50516Y-41261D02*
X50616Y-41261D01*
G54D15*
X47016Y-45361D02*
X47016Y-46061D01*
X47016Y-46061D02*
X45816Y-46061D01*
X45816Y-46061D02*
X45816Y-45361D01*
X45816Y-45361D02*
X47016Y-45361D01*
X49996Y-46661D02*
X49995Y-46670D01*
X49992Y-46680D01*
X49987Y-46688D01*
X49981Y-46696D01*
X49973Y-46702D01*
X49965Y-46707D01*
X49956Y-46709D01*
X49946Y-46710D01*
X49937Y-46710D01*
X49928Y-46707D01*
X49919Y-46702D01*
X49912Y-46696D01*
X49905Y-46689D01*
X49901Y-46680D01*
X49898Y-46671D01*
X49897Y-46661D01*
X49897Y-46652D01*
X49900Y-46643D01*
X49904Y-46634D01*
X49911Y-46627D01*
X49918Y-46620D01*
X49926Y-46616D01*
X49936Y-46613D01*
X49945Y-46612D01*
X49954Y-46612D01*
X49964Y-46615D01*
X49972Y-46619D01*
X49980Y-46625D01*
X49986Y-46633D01*
X49991Y-46641D01*
X49994Y-46650D01*
X49995Y-46660D01*
X49996Y-46661D01*
X50396Y-46661D02*
X49996Y-46661D01*
X49996Y-46661D02*
X49996Y-46061D01*
X49996Y-46061D02*
X50396Y-46061D01*
X50796Y-46061D02*
X51196Y-46061D01*
X51196Y-46061D02*
X51196Y-46661D01*
X51196Y-46661D02*
X50796Y-46661D01*
X45566Y-45661D02*
X45565Y-45670D01*
X45562Y-45680D01*
X45557Y-45688D01*
X45551Y-45696D01*
X45543Y-45702D01*
X45535Y-45707D01*
X45526Y-45709D01*
X45516Y-45710D01*
X45507Y-45710D01*
X45498Y-45707D01*
X45489Y-45702D01*
X45482Y-45696D01*
X45475Y-45689D01*
X45471Y-45680D01*
X45468Y-45671D01*
X45467Y-45661D01*
X45467Y-45652D01*
X45470Y-45643D01*
X45474Y-45634D01*
X45481Y-45627D01*
X45488Y-45620D01*
X45496Y-45616D01*
X45506Y-45613D01*
X45515Y-45612D01*
X45524Y-45612D01*
X45534Y-45615D01*
X45542Y-45619D01*
X45550Y-45625D01*
X45556Y-45633D01*
X45561Y-45641D01*
X45564Y-45650D01*
X45565Y-45660D01*
X45566Y-45661D01*
X45066Y-45661D02*
X45466Y-45661D01*
X45466Y-45661D02*
X45466Y-46261D01*
X45466Y-46261D02*
X45066Y-46261D01*
X44666Y-46261D02*
X44266Y-46261D01*
X44266Y-46261D02*
X44266Y-45661D01*
X44266Y-45661D02*
X44666Y-45661D01*
X45846Y-48311D02*
X45845Y-48320D01*
X45842Y-48330D01*
X45837Y-48338D01*
X45831Y-48346D01*
X45823Y-48352D01*
X45815Y-48357D01*
X45806Y-48359D01*
X45796Y-48360D01*
X45787Y-48360D01*
X45778Y-48357D01*
X45769Y-48352D01*
X45762Y-48346D01*
X45755Y-48339D01*
X45751Y-48330D01*
X45748Y-48321D01*
X45747Y-48311D01*
X45747Y-48302D01*
X45750Y-48293D01*
X45754Y-48284D01*
X45761Y-48277D01*
X45768Y-48270D01*
X45776Y-48266D01*
X45786Y-48263D01*
X45795Y-48262D01*
X45804Y-48262D01*
X45814Y-48265D01*
X45822Y-48269D01*
X45830Y-48275D01*
X45836Y-48283D01*
X45841Y-48291D01*
X45844Y-48300D01*
X45845Y-48310D01*
X45846Y-48311D01*
X45796Y-47861D02*
X45796Y-48261D01*
X45796Y-48261D02*
X45196Y-48261D01*
X45196Y-48261D02*
X45196Y-47861D01*
X45196Y-47461D02*
X45196Y-47061D01*
X45196Y-47061D02*
X45796Y-47061D01*
X45796Y-47061D02*
X45796Y-47461D01*
X45936Y-50681D02*
X45935Y-50690D01*
X45932Y-50700D01*
X45927Y-50708D01*
X45921Y-50716D01*
X45913Y-50722D01*
X45905Y-50727D01*
X45896Y-50729D01*
X45886Y-50730D01*
X45877Y-50730D01*
X45868Y-50727D01*
X45859Y-50722D01*
X45852Y-50716D01*
X45845Y-50709D01*
X45841Y-50700D01*
X45838Y-50691D01*
X45837Y-50681D01*
X45837Y-50672D01*
X45840Y-50663D01*
X45844Y-50654D01*
X45851Y-50647D01*
X45858Y-50640D01*
X45866Y-50636D01*
X45876Y-50633D01*
X45885Y-50632D01*
X45894Y-50632D01*
X45904Y-50635D01*
X45912Y-50639D01*
X45920Y-50645D01*
X45926Y-50653D01*
X45931Y-50661D01*
X45934Y-50670D01*
X45935Y-50680D01*
X45936Y-50681D01*
X45436Y-50681D02*
X45836Y-50681D01*
X45836Y-50681D02*
X45836Y-51281D01*
X45836Y-51281D02*
X45436Y-51281D01*
X45036Y-51281D02*
X44636Y-51281D01*
X44636Y-51281D02*
X44636Y-50681D01*
X44636Y-50681D02*
X45036Y-50681D01*
G54D14*
X45474Y-49024D02*
X45474Y-49338D01*
X45632Y-49279D02*
X45632Y-49338D01*
X45632Y-49338D02*
X45120Y-49338D01*
X45120Y-49338D02*
X45120Y-49279D01*
X45120Y-49083D02*
X45120Y-49024D01*
X45120Y-49024D02*
X45632Y-49024D01*
X45632Y-49024D02*
X45632Y-49083D01*
X53557Y-48498D02*
X53243Y-48498D01*
X53302Y-48656D02*
X53243Y-48656D01*
X53243Y-48656D02*
X53243Y-48144D01*
X53243Y-48144D02*
X53302Y-48144D01*
X53498Y-48144D02*
X53557Y-48144D01*
X53557Y-48144D02*
X53557Y-48656D01*
X53557Y-48656D02*
X53498Y-48656D01*
X50957Y-48498D02*
X50643Y-48498D01*
X50702Y-48656D02*
X50643Y-48656D01*
X50643Y-48656D02*
X50643Y-48144D01*
X50643Y-48144D02*
X50702Y-48144D01*
X50898Y-48144D02*
X50957Y-48144D01*
X50957Y-48144D02*
X50957Y-48656D01*
X50957Y-48656D02*
X50898Y-48656D01*
X48357Y-48498D02*
X48043Y-48498D01*
X48102Y-48656D02*
X48043Y-48656D01*
X48043Y-48656D02*
X48043Y-48144D01*
X48043Y-48144D02*
X48102Y-48144D01*
X48298Y-48144D02*
X48357Y-48144D01*
X48357Y-48144D02*
X48357Y-48656D01*
X48357Y-48656D02*
X48298Y-48656D01*
X45323Y-45009D02*
X45009Y-45009D01*
X45068Y-45167D02*
X45009Y-45167D01*
X45009Y-45167D02*
X45009Y-44655D01*
X45009Y-44655D02*
X45068Y-44655D01*
X45264Y-44655D02*
X45323Y-44655D01*
X45323Y-44655D02*
X45323Y-45167D01*
X45323Y-45167D02*
X45264Y-45167D01*
G54D15*
X47900Y-49200D02*
X45900Y-49200D01*
X45900Y-49200D02*
X45900Y-47400D01*
X45900Y-47400D02*
X47900Y-47400D01*
X47900Y-47400D02*
X47900Y-49200D01*
X47900Y-48600D02*
X47700Y-48600D01*
X47700Y-48600D02*
X47700Y-48100D01*
X47700Y-48100D02*
X47900Y-48100D01*
X50500Y-49200D02*
X48500Y-49200D01*
X48500Y-49200D02*
X48500Y-47400D01*
X48500Y-47400D02*
X50500Y-47400D01*
X50500Y-47400D02*
X50500Y-49200D01*
X50500Y-48600D02*
X50300Y-48600D01*
X50300Y-48600D02*
X50300Y-48100D01*
X50300Y-48100D02*
X50500Y-48100D01*
X53100Y-49200D02*
X51100Y-49200D01*
X51100Y-49200D02*
X51100Y-47400D01*
X51100Y-47400D02*
X53100Y-47400D01*
X53100Y-47400D02*
X53100Y-49200D01*
X53100Y-48600D02*
X52900Y-48600D01*
X52900Y-48600D02*
X52900Y-48100D01*
X52900Y-48100D02*
X53100Y-48100D01*
X44816Y-49801D02*
X45016Y-49501D01*
X44816Y-50501D02*
X44816Y-49476D01*
X44816Y-49476D02*
X45416Y-49476D01*
X45416Y-49476D02*
X45416Y-50501D01*
X45416Y-50501D02*
X44816Y-50501D01*
G54D11*
X49516Y-42261D02*
X49566Y-42261D01*
X49116Y-42261D02*
X49066Y-42261D01*
X49116Y-42111D02*
X49116Y-43011D01*
X49516Y-43011D02*
X49516Y-42111D01*
X48816Y-42261D02*
X48866Y-42261D01*
X48416Y-42261D02*
X48366Y-42261D01*
X48416Y-42111D02*
X48416Y-43011D01*
X48816Y-43011D02*
X48816Y-42111D01*
G54D13*
X48483Y-51413D02*
X48483Y-53775D01*
X46317Y-51413D02*
X46317Y-53775D01*
X51083Y-51413D02*
X51083Y-53775D01*
X48917Y-51413D02*
X48917Y-53775D01*
X53683Y-51413D02*
X53683Y-53775D01*
X51517Y-51413D02*
X51517Y-53775D01*
G54D11*
X50980Y-47580D02*
X50980Y-47020D01*
X50620Y-47580D02*
X50620Y-47020D01*
X44636Y-46981D02*
X44636Y-46421D01*
X44276Y-46981D02*
X44276Y-46421D01*
X45076Y-47321D02*
X45076Y-46761D01*
X44716Y-47321D02*
X44716Y-46761D01*
X48036Y-44491D02*
X48596Y-44491D01*
X48036Y-44131D02*
X48596Y-44131D01*
X49136Y-43131D02*
X49136Y-43691D01*
X49496Y-43131D02*
X49496Y-43691D01*
X48736Y-43131D02*
X48736Y-43691D01*
X49096Y-43131D02*
X49096Y-43691D01*
X48036Y-44891D02*
X48596Y-44891D01*
X48036Y-44531D02*
X48596Y-44531D01*
X53580Y-47580D02*
X53580Y-47020D01*
X53220Y-47580D02*
X53220Y-47020D01*
X48380Y-47580D02*
X48380Y-47020D01*
X48020Y-47580D02*
X48020Y-47020D01*
X53580Y-50380D02*
X53580Y-49820D01*
X53220Y-50380D02*
X53220Y-49820D01*
X53186Y-53931D02*
X53186Y-54491D01*
X53546Y-53931D02*
X53546Y-54491D01*
X50980Y-50380D02*
X50980Y-49820D01*
X50620Y-50380D02*
X50620Y-49820D01*
X50586Y-53931D02*
X50586Y-54491D01*
X50946Y-53931D02*
X50946Y-54491D01*
X48380Y-50380D02*
X48380Y-49820D01*
X48020Y-50380D02*
X48020Y-49820D01*
X47986Y-53931D02*
X47986Y-54491D01*
X48346Y-53931D02*
X48346Y-54491D01*
X45936Y-44891D02*
X46496Y-44891D01*
X45936Y-44531D02*
X46496Y-44531D01*
X47280Y-50120D02*
X46720Y-50120D01*
X47280Y-50480D02*
X46720Y-50480D01*
X49880Y-50120D02*
X49320Y-50120D01*
X49880Y-50480D02*
X49320Y-50480D01*
X52480Y-50120D02*
X51920Y-50120D01*
X52480Y-50480D02*
X51920Y-50480D01*
G54D15*
X45236Y-48491D02*
X45036Y-48491D01*
X45036Y-48491D02*
X45036Y-48791D01*
X45036Y-48791D02*
X45236Y-48791D01*
X45436Y-48491D02*
X45636Y-48491D01*
X45636Y-48491D02*
X45636Y-48791D01*
X45636Y-48791D02*
X45436Y-48791D01*
G54D12*
X51071Y-45523D02*
X51071Y-45123D01*
X51224Y-45123D01*
X51262Y-45142D01*
X51281Y-45161D01*
X51300Y-45199D01*
X51300Y-45256D01*
X51281Y-45294D01*
X51262Y-45313D01*
X51224Y-45332D01*
X51071Y-45332D01*
X51452Y-45161D02*
X51471Y-45142D01*
X51509Y-45123D01*
X51605Y-45123D01*
X51643Y-45142D01*
X51662Y-45161D01*
X51681Y-45199D01*
X51681Y-45237D01*
X51662Y-45294D01*
X51433Y-45523D01*
X51681Y-45523D01*
X44521Y-42523D02*
X44521Y-42123D01*
X44674Y-42123D01*
X44712Y-42142D01*
X44731Y-42161D01*
X44750Y-42199D01*
X44750Y-42256D01*
X44731Y-42294D01*
X44712Y-42313D01*
X44674Y-42332D01*
X44521Y-42332D01*
X45131Y-42523D02*
X44902Y-42523D01*
X45016Y-42523D02*
X45016Y-42123D01*
X44978Y-42180D01*
X44940Y-42218D01*
X44902Y-42237D01*
X51887Y-42586D02*
X51887Y-42186D01*
X52116Y-42586D02*
X51944Y-42357D01*
X52116Y-42186D02*
X51887Y-42414D01*
X52497Y-42586D02*
X52268Y-42586D01*
X52382Y-42586D02*
X52382Y-42186D01*
X52344Y-42243D01*
X52306Y-42281D01*
X52268Y-42300D01*
X47111Y-45473D02*
X47111Y-45797D01*
X47130Y-45835D01*
X47149Y-45854D01*
X47187Y-45873D01*
X47264Y-45873D01*
X47302Y-45854D01*
X47321Y-45835D01*
X47340Y-45797D01*
X47340Y-45473D01*
X47511Y-45511D02*
X47530Y-45492D01*
X47568Y-45473D01*
X47664Y-45473D01*
X47702Y-45492D01*
X47721Y-45511D01*
X47740Y-45549D01*
X47740Y-45587D01*
X47721Y-45644D01*
X47492Y-45873D01*
X47740Y-45873D01*
G54D11*
X50973Y-45954D02*
X50959Y-45968D01*
X50916Y-45982D01*
X50887Y-45982D01*
X50844Y-45968D01*
X50816Y-45940D01*
X50801Y-45911D01*
X50787Y-45854D01*
X50787Y-45811D01*
X50801Y-45754D01*
X50816Y-45725D01*
X50844Y-45697D01*
X50887Y-45682D01*
X50916Y-45682D01*
X50959Y-45697D01*
X50973Y-45711D01*
X51259Y-45982D02*
X51087Y-45982D01*
X51173Y-45982D02*
X51173Y-45682D01*
X51144Y-45725D01*
X51116Y-45754D01*
X51087Y-45768D01*
X51516Y-45682D02*
X51459Y-45682D01*
X51430Y-45697D01*
X51416Y-45711D01*
X51387Y-45754D01*
X51373Y-45811D01*
X51373Y-45925D01*
X51387Y-45954D01*
X51402Y-45968D01*
X51430Y-45982D01*
X51487Y-45982D01*
X51516Y-45968D01*
X51530Y-45954D01*
X51545Y-45925D01*
X51545Y-45854D01*
X51530Y-45825D01*
X51516Y-45811D01*
X51487Y-45797D01*
X51430Y-45797D01*
X51402Y-45811D01*
X51387Y-45825D01*
X51373Y-45854D01*
X44323Y-45504D02*
X44309Y-45518D01*
X44266Y-45532D01*
X44237Y-45532D01*
X44194Y-45518D01*
X44166Y-45490D01*
X44151Y-45461D01*
X44137Y-45404D01*
X44137Y-45361D01*
X44151Y-45304D01*
X44166Y-45275D01*
X44194Y-45247D01*
X44237Y-45232D01*
X44266Y-45232D01*
X44309Y-45247D01*
X44323Y-45261D01*
X44609Y-45532D02*
X44437Y-45532D01*
X44523Y-45532D02*
X44523Y-45232D01*
X44494Y-45275D01*
X44466Y-45304D01*
X44437Y-45318D01*
X44709Y-45232D02*
X44909Y-45232D01*
X44780Y-45532D01*
X44866Y-47982D02*
X44723Y-47982D01*
X44723Y-47682D01*
X45124Y-47982D02*
X44952Y-47982D01*
X45038Y-47982D02*
X45038Y-47682D01*
X45009Y-47725D01*
X44981Y-47754D01*
X44952Y-47768D01*
X46092Y-51074D02*
X46078Y-51088D01*
X46035Y-51102D01*
X46006Y-51102D01*
X45963Y-51088D01*
X45935Y-51060D01*
X45920Y-51031D01*
X45906Y-50974D01*
X45906Y-50931D01*
X45920Y-50874D01*
X45935Y-50845D01*
X45963Y-50817D01*
X46006Y-50802D01*
X46035Y-50802D01*
X46078Y-50817D01*
X46092Y-50831D01*
X46378Y-51102D02*
X46206Y-51102D01*
X46292Y-51102D02*
X46292Y-50802D01*
X46263Y-50845D01*
X46235Y-50874D01*
X46206Y-50888D01*
X44494Y-49332D02*
X44494Y-49032D01*
X44566Y-49032D01*
X44609Y-49047D01*
X44637Y-49075D01*
X44652Y-49104D01*
X44666Y-49161D01*
X44666Y-49204D01*
X44652Y-49261D01*
X44637Y-49290D01*
X44609Y-49318D01*
X44566Y-49332D01*
X44494Y-49332D01*
X44766Y-49032D02*
X44966Y-49032D01*
X44837Y-49332D01*
X53537Y-49283D02*
X53237Y-49283D01*
X53237Y-49211D01*
X53252Y-49168D01*
X53280Y-49140D01*
X53309Y-49125D01*
X53366Y-49111D01*
X53409Y-49111D01*
X53466Y-49125D01*
X53495Y-49140D01*
X53523Y-49168D01*
X53537Y-49211D01*
X53537Y-49283D01*
X53237Y-48854D02*
X53237Y-48911D01*
X53252Y-48940D01*
X53266Y-48954D01*
X53309Y-48983D01*
X53366Y-48997D01*
X53480Y-48997D01*
X53509Y-48983D01*
X53523Y-48968D01*
X53537Y-48940D01*
X53537Y-48883D01*
X53523Y-48854D01*
X53509Y-48840D01*
X53480Y-48825D01*
X53409Y-48825D01*
X53380Y-48840D01*
X53366Y-48854D01*
X53352Y-48883D01*
X53352Y-48940D01*
X53366Y-48968D01*
X53380Y-48983D01*
X53409Y-48997D01*
X50937Y-49283D02*
X50637Y-49283D01*
X50637Y-49211D01*
X50652Y-49168D01*
X50680Y-49140D01*
X50709Y-49125D01*
X50766Y-49111D01*
X50809Y-49111D01*
X50866Y-49125D01*
X50895Y-49140D01*
X50923Y-49168D01*
X50937Y-49211D01*
X50937Y-49283D01*
X50637Y-48840D02*
X50637Y-48983D01*
X50780Y-48997D01*
X50766Y-48983D01*
X50752Y-48954D01*
X50752Y-48883D01*
X50766Y-48854D01*
X50780Y-48840D01*
X50809Y-48825D01*
X50880Y-48825D01*
X50909Y-48840D01*
X50923Y-48854D01*
X50937Y-48883D01*
X50937Y-48954D01*
X50923Y-48983D01*
X50909Y-48997D01*
X48337Y-49283D02*
X48037Y-49283D01*
X48037Y-49211D01*
X48052Y-49168D01*
X48080Y-49140D01*
X48109Y-49125D01*
X48166Y-49111D01*
X48209Y-49111D01*
X48266Y-49125D01*
X48295Y-49140D01*
X48323Y-49168D01*
X48337Y-49211D01*
X48337Y-49283D01*
X48137Y-48854D02*
X48337Y-48854D01*
X48023Y-48925D02*
X48237Y-48997D01*
X48237Y-48811D01*
X44444Y-44932D02*
X44444Y-44632D01*
X44516Y-44632D01*
X44559Y-44647D01*
X44587Y-44675D01*
X44602Y-44704D01*
X44616Y-44761D01*
X44616Y-44804D01*
X44602Y-44861D01*
X44587Y-44890D01*
X44559Y-44918D01*
X44516Y-44932D01*
X44444Y-44932D01*
X44902Y-44932D02*
X44730Y-44932D01*
X44816Y-44932D02*
X44816Y-44632D01*
X44787Y-44675D01*
X44759Y-44704D01*
X44730Y-44718D01*
X47137Y-46382D02*
X47137Y-46625D01*
X47152Y-46654D01*
X47166Y-46668D01*
X47195Y-46682D01*
X47252Y-46682D01*
X47280Y-46668D01*
X47295Y-46654D01*
X47309Y-46625D01*
X47309Y-46382D01*
X47594Y-46382D02*
X47451Y-46382D01*
X47437Y-46525D01*
X47451Y-46511D01*
X47480Y-46497D01*
X47551Y-46497D01*
X47580Y-46511D01*
X47594Y-46525D01*
X47609Y-46554D01*
X47609Y-46625D01*
X47594Y-46654D01*
X47580Y-46668D01*
X47551Y-46682D01*
X47480Y-46682D01*
X47451Y-46668D01*
X47437Y-46654D01*
X48987Y-46382D02*
X48987Y-46625D01*
X49002Y-46654D01*
X49016Y-46668D01*
X49045Y-46682D01*
X49102Y-46682D01*
X49130Y-46668D01*
X49145Y-46654D01*
X49159Y-46625D01*
X49159Y-46382D01*
X49430Y-46382D02*
X49373Y-46382D01*
X49344Y-46397D01*
X49330Y-46411D01*
X49301Y-46454D01*
X49287Y-46511D01*
X49287Y-46625D01*
X49301Y-46654D01*
X49316Y-46668D01*
X49344Y-46682D01*
X49401Y-46682D01*
X49430Y-46668D01*
X49444Y-46654D01*
X49459Y-46625D01*
X49459Y-46554D01*
X49444Y-46525D01*
X49430Y-46511D01*
X49401Y-46497D01*
X49344Y-46497D01*
X49316Y-46511D01*
X49301Y-46525D01*
X49287Y-46554D01*
X51987Y-46432D02*
X51987Y-46675D01*
X52002Y-46704D01*
X52016Y-46718D01*
X52045Y-46732D01*
X52102Y-46732D01*
X52130Y-46718D01*
X52145Y-46704D01*
X52159Y-46675D01*
X52159Y-46432D01*
X52273Y-46432D02*
X52473Y-46432D01*
X52344Y-46732D01*
X45887Y-50082D02*
X45887Y-50325D01*
X45902Y-50354D01*
X45916Y-50368D01*
X45945Y-50382D01*
X46002Y-50382D01*
X46030Y-50368D01*
X46045Y-50354D01*
X46059Y-50325D01*
X46059Y-50082D01*
X46359Y-50382D02*
X46187Y-50382D01*
X46273Y-50382D02*
X46273Y-50082D01*
X46244Y-50125D01*
X46216Y-50154D01*
X46187Y-50168D01*
X47371Y-51350D02*
X47343Y-51336D01*
X47314Y-51307D01*
X47271Y-51264D01*
X47243Y-51250D01*
X47214Y-51250D01*
X47229Y-51321D02*
X47200Y-51307D01*
X47171Y-51279D01*
X47157Y-51221D01*
X47157Y-51121D01*
X47171Y-51064D01*
X47200Y-51036D01*
X47229Y-51021D01*
X47286Y-51021D01*
X47314Y-51036D01*
X47343Y-51064D01*
X47357Y-51121D01*
X47357Y-51221D01*
X47343Y-51279D01*
X47314Y-51307D01*
X47286Y-51321D01*
X47229Y-51321D01*
X47643Y-51321D02*
X47471Y-51321D01*
X47557Y-51321D02*
X47557Y-51021D01*
X47528Y-51064D01*
X47500Y-51093D01*
X47471Y-51107D01*
X49971Y-51350D02*
X49943Y-51336D01*
X49914Y-51307D01*
X49871Y-51264D01*
X49843Y-51250D01*
X49814Y-51250D01*
X49829Y-51321D02*
X49800Y-51307D01*
X49771Y-51279D01*
X49757Y-51221D01*
X49757Y-51121D01*
X49771Y-51064D01*
X49800Y-51036D01*
X49829Y-51021D01*
X49886Y-51021D01*
X49914Y-51036D01*
X49943Y-51064D01*
X49957Y-51121D01*
X49957Y-51221D01*
X49943Y-51279D01*
X49914Y-51307D01*
X49886Y-51321D01*
X49829Y-51321D01*
X50057Y-51021D02*
X50243Y-51021D01*
X50143Y-51136D01*
X50185Y-51136D01*
X50214Y-51150D01*
X50228Y-51164D01*
X50243Y-51193D01*
X50243Y-51264D01*
X50228Y-51293D01*
X50214Y-51307D01*
X50185Y-51321D01*
X50100Y-51321D01*
X50071Y-51307D01*
X50057Y-51293D01*
X52571Y-51350D02*
X52543Y-51336D01*
X52514Y-51307D01*
X52471Y-51264D01*
X52443Y-51250D01*
X52414Y-51250D01*
X52429Y-51321D02*
X52400Y-51307D01*
X52371Y-51279D01*
X52357Y-51221D01*
X52357Y-51121D01*
X52371Y-51064D01*
X52400Y-51036D01*
X52429Y-51021D01*
X52486Y-51021D01*
X52514Y-51036D01*
X52543Y-51064D01*
X52557Y-51121D01*
X52557Y-51221D01*
X52543Y-51279D01*
X52514Y-51307D01*
X52486Y-51321D01*
X52429Y-51321D01*
X52828Y-51021D02*
X52685Y-51021D01*
X52671Y-51164D01*
X52685Y-51150D01*
X52714Y-51136D01*
X52785Y-51136D01*
X52814Y-51150D01*
X52828Y-51164D01*
X52843Y-51193D01*
X52843Y-51264D01*
X52828Y-51293D01*
X52814Y-51307D01*
X52785Y-51321D01*
X52714Y-51321D01*
X52685Y-51307D01*
X52671Y-51293D01*
X50473Y-47954D02*
X50459Y-47968D01*
X50416Y-47982D01*
X50387Y-47982D01*
X50344Y-47968D01*
X50316Y-47940D01*
X50301Y-47911D01*
X50287Y-47854D01*
X50287Y-47811D01*
X50301Y-47754D01*
X50316Y-47725D01*
X50344Y-47697D01*
X50387Y-47682D01*
X50416Y-47682D01*
X50459Y-47697D01*
X50473Y-47711D01*
X50759Y-47982D02*
X50587Y-47982D01*
X50673Y-47982D02*
X50673Y-47682D01*
X50644Y-47725D01*
X50616Y-47754D01*
X50587Y-47768D01*
X50859Y-47682D02*
X51045Y-47682D01*
X50945Y-47797D01*
X50987Y-47797D01*
X51016Y-47811D01*
X51030Y-47825D01*
X51045Y-47854D01*
X51045Y-47925D01*
X51030Y-47954D01*
X51016Y-47968D01*
X50987Y-47982D01*
X50902Y-47982D01*
X50873Y-47968D01*
X50859Y-47954D01*
X44587Y-47654D02*
X44445Y-47754D01*
X44587Y-47826D02*
X44287Y-47826D01*
X44287Y-47711D01*
X44302Y-47683D01*
X44316Y-47668D01*
X44345Y-47654D01*
X44387Y-47654D01*
X44416Y-47668D01*
X44430Y-47683D01*
X44445Y-47711D01*
X44445Y-47826D01*
X44316Y-47540D02*
X44302Y-47526D01*
X44287Y-47497D01*
X44287Y-47426D01*
X44302Y-47397D01*
X44316Y-47383D01*
X44345Y-47368D01*
X44373Y-47368D01*
X44416Y-47383D01*
X44587Y-47554D01*
X44587Y-47368D01*
X44287Y-47097D02*
X44287Y-47240D01*
X44430Y-47254D01*
X44416Y-47240D01*
X44402Y-47211D01*
X44402Y-47140D01*
X44416Y-47111D01*
X44430Y-47097D01*
X44459Y-47082D01*
X44530Y-47082D01*
X44559Y-47097D01*
X44573Y-47111D01*
X44587Y-47140D01*
X44587Y-47211D01*
X44573Y-47240D01*
X44559Y-47254D01*
X44923Y-46682D02*
X44823Y-46540D01*
X44751Y-46682D02*
X44751Y-46382D01*
X44866Y-46382D01*
X44894Y-46397D01*
X44909Y-46411D01*
X44923Y-46440D01*
X44923Y-46482D01*
X44909Y-46511D01*
X44894Y-46525D01*
X44866Y-46540D01*
X44751Y-46540D01*
X45037Y-46411D02*
X45051Y-46397D01*
X45080Y-46382D01*
X45151Y-46382D01*
X45180Y-46397D01*
X45194Y-46411D01*
X45209Y-46440D01*
X45209Y-46468D01*
X45194Y-46511D01*
X45023Y-46682D01*
X45209Y-46682D01*
X45466Y-46482D02*
X45466Y-46682D01*
X45395Y-46368D02*
X45323Y-46582D01*
X45509Y-46582D01*
X47916Y-44054D02*
X47902Y-44068D01*
X47859Y-44082D01*
X47830Y-44082D01*
X47787Y-44068D01*
X47759Y-44040D01*
X47744Y-44011D01*
X47730Y-43954D01*
X47730Y-43911D01*
X47744Y-43854D01*
X47759Y-43825D01*
X47787Y-43797D01*
X47830Y-43782D01*
X47859Y-43782D01*
X47902Y-43797D01*
X47916Y-43811D01*
X48030Y-43811D02*
X48044Y-43797D01*
X48073Y-43782D01*
X48144Y-43782D01*
X48173Y-43797D01*
X48187Y-43811D01*
X48202Y-43840D01*
X48202Y-43868D01*
X48187Y-43911D01*
X48016Y-44082D01*
X48202Y-44082D01*
X49723Y-43382D02*
X49623Y-43240D01*
X49551Y-43382D02*
X49551Y-43082D01*
X49666Y-43082D01*
X49694Y-43097D01*
X49709Y-43111D01*
X49723Y-43140D01*
X49723Y-43182D01*
X49709Y-43211D01*
X49694Y-43225D01*
X49666Y-43240D01*
X49551Y-43240D01*
X50009Y-43382D02*
X49837Y-43382D01*
X49923Y-43382D02*
X49923Y-43082D01*
X49894Y-43125D01*
X49866Y-43154D01*
X49837Y-43168D01*
X50280Y-43082D02*
X50137Y-43082D01*
X50123Y-43225D01*
X50137Y-43211D01*
X50166Y-43197D01*
X50237Y-43197D01*
X50266Y-43211D01*
X50280Y-43225D01*
X50295Y-43254D01*
X50295Y-43325D01*
X50280Y-43354D01*
X50266Y-43368D01*
X50237Y-43382D01*
X50166Y-43382D01*
X50137Y-43368D01*
X50123Y-43354D01*
X48073Y-43432D02*
X47973Y-43290D01*
X47901Y-43432D02*
X47901Y-43132D01*
X48016Y-43132D01*
X48044Y-43147D01*
X48059Y-43161D01*
X48073Y-43190D01*
X48073Y-43232D01*
X48059Y-43261D01*
X48044Y-43275D01*
X48016Y-43290D01*
X47901Y-43290D01*
X48359Y-43432D02*
X48187Y-43432D01*
X48273Y-43432D02*
X48273Y-43132D01*
X48244Y-43175D01*
X48216Y-43204D01*
X48187Y-43218D01*
X48459Y-43132D02*
X48645Y-43132D01*
X48545Y-43247D01*
X48587Y-43247D01*
X48616Y-43261D01*
X48630Y-43275D01*
X48645Y-43304D01*
X48645Y-43375D01*
X48630Y-43404D01*
X48616Y-43418D01*
X48587Y-43432D01*
X48502Y-43432D01*
X48473Y-43418D01*
X48459Y-43404D01*
X48066Y-45232D02*
X47966Y-45090D01*
X47894Y-45232D02*
X47894Y-44932D01*
X48009Y-44932D01*
X48037Y-44947D01*
X48052Y-44961D01*
X48066Y-44990D01*
X48066Y-45032D01*
X48052Y-45061D01*
X48037Y-45075D01*
X48009Y-45090D01*
X47894Y-45090D01*
X48352Y-45232D02*
X48180Y-45232D01*
X48266Y-45232D02*
X48266Y-44932D01*
X48237Y-44975D01*
X48209Y-45004D01*
X48180Y-45018D01*
X53073Y-47954D02*
X53059Y-47968D01*
X53016Y-47982D01*
X52987Y-47982D01*
X52944Y-47968D01*
X52916Y-47940D01*
X52901Y-47911D01*
X52887Y-47854D01*
X52887Y-47811D01*
X52901Y-47754D01*
X52916Y-47725D01*
X52944Y-47697D01*
X52987Y-47682D01*
X53016Y-47682D01*
X53059Y-47697D01*
X53073Y-47711D01*
X53359Y-47982D02*
X53187Y-47982D01*
X53273Y-47982D02*
X53273Y-47682D01*
X53244Y-47725D01*
X53216Y-47754D01*
X53187Y-47768D01*
X53616Y-47782D02*
X53616Y-47982D01*
X53545Y-47668D02*
X53473Y-47882D01*
X53659Y-47882D01*
X47873Y-47954D02*
X47859Y-47968D01*
X47816Y-47982D01*
X47787Y-47982D01*
X47744Y-47968D01*
X47716Y-47940D01*
X47701Y-47911D01*
X47687Y-47854D01*
X47687Y-47811D01*
X47701Y-47754D01*
X47716Y-47725D01*
X47744Y-47697D01*
X47787Y-47682D01*
X47816Y-47682D01*
X47859Y-47697D01*
X47873Y-47711D01*
X48159Y-47982D02*
X47987Y-47982D01*
X48073Y-47982D02*
X48073Y-47682D01*
X48044Y-47725D01*
X48016Y-47754D01*
X47987Y-47768D01*
X48273Y-47711D02*
X48287Y-47697D01*
X48316Y-47682D01*
X48387Y-47682D01*
X48416Y-47697D01*
X48430Y-47711D01*
X48445Y-47740D01*
X48445Y-47768D01*
X48430Y-47811D01*
X48259Y-47982D01*
X48445Y-47982D01*
X53137Y-50554D02*
X52995Y-50654D01*
X53137Y-50726D02*
X52837Y-50726D01*
X52837Y-50611D01*
X52852Y-50583D01*
X52866Y-50568D01*
X52895Y-50554D01*
X52937Y-50554D01*
X52966Y-50568D01*
X52980Y-50583D01*
X52995Y-50611D01*
X52995Y-50726D01*
X52866Y-50440D02*
X52852Y-50426D01*
X52837Y-50397D01*
X52837Y-50326D01*
X52852Y-50297D01*
X52866Y-50283D01*
X52895Y-50268D01*
X52923Y-50268D01*
X52966Y-50283D01*
X53137Y-50454D01*
X53137Y-50268D01*
X52866Y-50154D02*
X52852Y-50140D01*
X52837Y-50111D01*
X52837Y-50040D01*
X52852Y-50011D01*
X52866Y-49997D01*
X52895Y-49982D01*
X52923Y-49982D01*
X52966Y-49997D01*
X53137Y-50168D01*
X53137Y-49982D01*
X53937Y-54304D02*
X53795Y-54404D01*
X53937Y-54476D02*
X53637Y-54476D01*
X53637Y-54361D01*
X53652Y-54333D01*
X53666Y-54318D01*
X53695Y-54304D01*
X53737Y-54304D01*
X53766Y-54318D01*
X53780Y-54333D01*
X53795Y-54361D01*
X53795Y-54476D01*
X53666Y-54190D02*
X53652Y-54176D01*
X53637Y-54147D01*
X53637Y-54076D01*
X53652Y-54047D01*
X53666Y-54033D01*
X53695Y-54018D01*
X53723Y-54018D01*
X53766Y-54033D01*
X53937Y-54204D01*
X53937Y-54018D01*
X53937Y-53732D02*
X53937Y-53904D01*
X53937Y-53818D02*
X53637Y-53818D01*
X53680Y-53847D01*
X53709Y-53875D01*
X53723Y-53904D01*
X50537Y-50554D02*
X50395Y-50654D01*
X50537Y-50726D02*
X50237Y-50726D01*
X50237Y-50611D01*
X50252Y-50583D01*
X50266Y-50568D01*
X50295Y-50554D01*
X50337Y-50554D01*
X50366Y-50568D01*
X50380Y-50583D01*
X50395Y-50611D01*
X50395Y-50726D01*
X50266Y-50440D02*
X50252Y-50426D01*
X50237Y-50397D01*
X50237Y-50326D01*
X50252Y-50297D01*
X50266Y-50283D01*
X50295Y-50268D01*
X50323Y-50268D01*
X50366Y-50283D01*
X50537Y-50454D01*
X50537Y-50268D01*
X50237Y-50082D02*
X50237Y-50054D01*
X50252Y-50025D01*
X50266Y-50011D01*
X50295Y-49997D01*
X50352Y-49982D01*
X50423Y-49982D01*
X50480Y-49997D01*
X50509Y-50011D01*
X50523Y-50025D01*
X50537Y-50054D01*
X50537Y-50082D01*
X50523Y-50111D01*
X50509Y-50125D01*
X50480Y-50140D01*
X50423Y-50154D01*
X50352Y-50154D01*
X50295Y-50140D01*
X50266Y-50125D01*
X50252Y-50111D01*
X50237Y-50082D01*
X51337Y-54504D02*
X51195Y-54604D01*
X51337Y-54676D02*
X51037Y-54676D01*
X51037Y-54561D01*
X51052Y-54533D01*
X51066Y-54518D01*
X51095Y-54504D01*
X51137Y-54504D01*
X51166Y-54518D01*
X51180Y-54533D01*
X51195Y-54561D01*
X51195Y-54676D01*
X51337Y-54218D02*
X51337Y-54390D01*
X51337Y-54304D02*
X51037Y-54304D01*
X51080Y-54333D01*
X51109Y-54361D01*
X51123Y-54390D01*
X51337Y-54075D02*
X51337Y-54018D01*
X51323Y-53990D01*
X51309Y-53975D01*
X51266Y-53947D01*
X51209Y-53932D01*
X51095Y-53932D01*
X51066Y-53947D01*
X51052Y-53961D01*
X51037Y-53990D01*
X51037Y-54047D01*
X51052Y-54075D01*
X51066Y-54090D01*
X51095Y-54104D01*
X51166Y-54104D01*
X51195Y-54090D01*
X51209Y-54075D01*
X51223Y-54047D01*
X51223Y-53990D01*
X51209Y-53961D01*
X51195Y-53947D01*
X51166Y-53932D01*
X47937Y-50554D02*
X47795Y-50654D01*
X47937Y-50726D02*
X47637Y-50726D01*
X47637Y-50611D01*
X47652Y-50583D01*
X47666Y-50568D01*
X47695Y-50554D01*
X47737Y-50554D01*
X47766Y-50568D01*
X47780Y-50583D01*
X47795Y-50611D01*
X47795Y-50726D01*
X47937Y-50268D02*
X47937Y-50440D01*
X47937Y-50354D02*
X47637Y-50354D01*
X47680Y-50383D01*
X47709Y-50411D01*
X47723Y-50440D01*
X47766Y-50097D02*
X47752Y-50125D01*
X47737Y-50140D01*
X47709Y-50154D01*
X47695Y-50154D01*
X47666Y-50140D01*
X47652Y-50125D01*
X47637Y-50097D01*
X47637Y-50040D01*
X47652Y-50011D01*
X47666Y-49997D01*
X47695Y-49982D01*
X47709Y-49982D01*
X47737Y-49997D01*
X47752Y-50011D01*
X47766Y-50040D01*
X47766Y-50097D01*
X47780Y-50125D01*
X47795Y-50140D01*
X47823Y-50154D01*
X47880Y-50154D01*
X47909Y-50140D01*
X47923Y-50125D01*
X47937Y-50097D01*
X47937Y-50040D01*
X47923Y-50011D01*
X47909Y-49997D01*
X47880Y-49982D01*
X47823Y-49982D01*
X47795Y-49997D01*
X47780Y-50011D01*
X47766Y-50040D01*
X48737Y-54504D02*
X48595Y-54604D01*
X48737Y-54676D02*
X48437Y-54676D01*
X48437Y-54561D01*
X48452Y-54533D01*
X48466Y-54518D01*
X48495Y-54504D01*
X48537Y-54504D01*
X48566Y-54518D01*
X48580Y-54533D01*
X48595Y-54561D01*
X48595Y-54676D01*
X48737Y-54218D02*
X48737Y-54390D01*
X48737Y-54304D02*
X48437Y-54304D01*
X48480Y-54333D01*
X48509Y-54361D01*
X48523Y-54390D01*
X48437Y-54118D02*
X48437Y-53918D01*
X48737Y-54047D01*
X46166Y-44424D02*
X46152Y-44438D01*
X46109Y-44452D01*
X46080Y-44452D01*
X46037Y-44438D01*
X46009Y-44410D01*
X45994Y-44381D01*
X45980Y-44324D01*
X45980Y-44281D01*
X45994Y-44224D01*
X46009Y-44195D01*
X46037Y-44167D01*
X46080Y-44152D01*
X46109Y-44152D01*
X46152Y-44167D01*
X46166Y-44181D01*
X46266Y-44152D02*
X46452Y-44152D01*
X46352Y-44267D01*
X46394Y-44267D01*
X46423Y-44281D01*
X46437Y-44295D01*
X46452Y-44324D01*
X46452Y-44395D01*
X46437Y-44424D01*
X46423Y-44438D01*
X46394Y-44452D01*
X46309Y-44452D01*
X46280Y-44438D01*
X46266Y-44424D01*
X46916Y-50854D02*
X46902Y-50868D01*
X46859Y-50882D01*
X46830Y-50882D01*
X46787Y-50868D01*
X46759Y-50840D01*
X46744Y-50811D01*
X46730Y-50754D01*
X46730Y-50711D01*
X46744Y-50654D01*
X46759Y-50625D01*
X46787Y-50597D01*
X46830Y-50582D01*
X46859Y-50582D01*
X46902Y-50597D01*
X46916Y-50611D01*
X47087Y-50711D02*
X47059Y-50697D01*
X47044Y-50682D01*
X47030Y-50654D01*
X47030Y-50640D01*
X47044Y-50611D01*
X47059Y-50597D01*
X47087Y-50582D01*
X47144Y-50582D01*
X47173Y-50597D01*
X47187Y-50611D01*
X47202Y-50640D01*
X47202Y-50654D01*
X47187Y-50682D01*
X47173Y-50697D01*
X47144Y-50711D01*
X47087Y-50711D01*
X47059Y-50725D01*
X47044Y-50740D01*
X47030Y-50768D01*
X47030Y-50825D01*
X47044Y-50854D01*
X47059Y-50868D01*
X47087Y-50882D01*
X47144Y-50882D01*
X47173Y-50868D01*
X47187Y-50854D01*
X47202Y-50825D01*
X47202Y-50768D01*
X47187Y-50740D01*
X47173Y-50725D01*
X47144Y-50711D01*
X49566Y-50854D02*
X49552Y-50868D01*
X49509Y-50882D01*
X49480Y-50882D01*
X49437Y-50868D01*
X49409Y-50840D01*
X49394Y-50811D01*
X49380Y-50754D01*
X49380Y-50711D01*
X49394Y-50654D01*
X49409Y-50625D01*
X49437Y-50597D01*
X49480Y-50582D01*
X49509Y-50582D01*
X49552Y-50597D01*
X49566Y-50611D01*
X49709Y-50882D02*
X49766Y-50882D01*
X49794Y-50868D01*
X49809Y-50854D01*
X49837Y-50811D01*
X49852Y-50754D01*
X49852Y-50640D01*
X49837Y-50611D01*
X49823Y-50597D01*
X49794Y-50582D01*
X49737Y-50582D01*
X49709Y-50597D01*
X49694Y-50611D01*
X49680Y-50640D01*
X49680Y-50711D01*
X49694Y-50740D01*
X49709Y-50754D01*
X49737Y-50768D01*
X49794Y-50768D01*
X49823Y-50754D01*
X49837Y-50740D01*
X49852Y-50711D01*
X52023Y-50854D02*
X52009Y-50868D01*
X51966Y-50882D01*
X51937Y-50882D01*
X51894Y-50868D01*
X51866Y-50840D01*
X51851Y-50811D01*
X51837Y-50754D01*
X51837Y-50711D01*
X51851Y-50654D01*
X51866Y-50625D01*
X51894Y-50597D01*
X51937Y-50582D01*
X51966Y-50582D01*
X52009Y-50597D01*
X52023Y-50611D01*
X52309Y-50882D02*
X52137Y-50882D01*
X52223Y-50882D02*
X52223Y-50582D01*
X52194Y-50625D01*
X52166Y-50654D01*
X52137Y-50668D01*
X52495Y-50582D02*
X52523Y-50582D01*
X52552Y-50597D01*
X52566Y-50611D01*
X52580Y-50640D01*
X52595Y-50697D01*
X52595Y-50768D01*
X52580Y-50825D01*
X52566Y-50854D01*
X52552Y-50868D01*
X52523Y-50882D01*
X52495Y-50882D01*
X52466Y-50868D01*
X52452Y-50854D01*
X52437Y-50825D01*
X52423Y-50768D01*
X52423Y-50697D01*
X52437Y-50640D01*
X52452Y-50611D01*
X52466Y-50597D01*
X52495Y-50582D01*
G54D16*
X45259Y-48978D02*
X45253Y-48984D01*
X45236Y-48990D01*
X45225Y-48990D01*
X45208Y-48984D01*
X45196Y-48972D01*
X45191Y-48961D01*
X45185Y-48938D01*
X45185Y-48921D01*
X45191Y-48898D01*
X45196Y-48887D01*
X45208Y-48875D01*
X45225Y-48870D01*
X45236Y-48870D01*
X45253Y-48875D01*
X45259Y-48881D01*
X45373Y-48990D02*
X45305Y-48990D01*
X45339Y-48990D02*
X45339Y-48870D01*
X45328Y-48887D01*
X45316Y-48898D01*
X45305Y-48904D01*
X45482Y-48870D02*
X45425Y-48870D01*
X45419Y-48927D01*
X45425Y-48921D01*
X45436Y-48915D01*
X45465Y-48915D01*
X45476Y-48921D01*
X45482Y-48927D01*
X45487Y-48938D01*
X45487Y-48967D01*
X45482Y-48978D01*
X45476Y-48984D01*
X45465Y-48990D01*
X45436Y-48990D01*
X45425Y-48984D01*
X45419Y-48978D01*
%LPC*%
G54D17*
X53516Y-44611D03*
X52516Y-44611D03*
X51516Y-44611D03*
X50516Y-44611D03*
X49516Y-44611D03*
G54D18*
X49816Y-41661D03*
X48816Y-41661D03*
X47816Y-41661D03*
X46816Y-41661D03*
X45816Y-41661D03*
X44816Y-41661D03*
X50916Y-41661D03*
X51916Y-41661D03*
X52916Y-41661D03*
G54D19*
X46041Y-46211D03*
X46791Y-46211D03*
X46041Y-45211D03*
X46416Y-46211D03*
X46791Y-45211D03*
G54D20*
X50221Y-46361D03*
X50971Y-46361D03*
X45241Y-45961D03*
X44491Y-45961D03*
G54D21*
X45496Y-48036D03*
X45496Y-47286D03*
G54D20*
X45611Y-50981D03*
X44861Y-50981D03*
G54D22*
X45120Y-49181D03*
X45632Y-49181D03*
G54D23*
X53400Y-48144D03*
X53400Y-48656D03*
X50800Y-48144D03*
X50800Y-48656D03*
X48200Y-48144D03*
X48200Y-48656D03*
X45166Y-44655D03*
X45166Y-45167D03*
G54D24*
X47650Y-49550D03*
X47150Y-49550D03*
X46650Y-49550D03*
X46150Y-49550D03*
X46150Y-47050D03*
X46650Y-47050D03*
X47150Y-47050D03*
X47650Y-47050D03*
X50250Y-49550D03*
X49750Y-49550D03*
X49250Y-49550D03*
X48750Y-49550D03*
X48750Y-47050D03*
X49250Y-47050D03*
X49750Y-47050D03*
X50250Y-47050D03*
X52850Y-49550D03*
X52350Y-49550D03*
X51850Y-49550D03*
X51350Y-49550D03*
X51350Y-47050D03*
X51850Y-47050D03*
X52350Y-47050D03*
X52850Y-47050D03*
G54D25*
X45616Y-49626D03*
X45616Y-50001D03*
X45616Y-50376D03*
X44616Y-50376D03*
X44616Y-50001D03*
X44616Y-49626D03*
G54D26*
X49316Y-42861D03*
X49316Y-42261D03*
X48616Y-42861D03*
X48616Y-42261D03*
G54D27*
X47400Y-52200D03*
G54D28*
X46652Y-53598D03*
X47144Y-53598D03*
X47656Y-53598D03*
X48148Y-53598D03*
G54D27*
X50000Y-52200D03*
G54D28*
X49252Y-53598D03*
X49744Y-53598D03*
X50256Y-53598D03*
X50748Y-53598D03*
G54D27*
X52600Y-52200D03*
G54D28*
X51852Y-53598D03*
X52344Y-53598D03*
X52856Y-53598D03*
X53348Y-53598D03*
G54D29*
X50800Y-47500D03*
X50800Y-47100D03*
X44456Y-46901D03*
X44456Y-46501D03*
X44896Y-47241D03*
X44896Y-46841D03*
G54D30*
X48116Y-44311D03*
X48516Y-44311D03*
G54D29*
X49316Y-43211D03*
X49316Y-43611D03*
X48916Y-43211D03*
X48916Y-43611D03*
G54D30*
X48116Y-44711D03*
X48516Y-44711D03*
G54D29*
X53400Y-47500D03*
X53400Y-47100D03*
X48200Y-47500D03*
X48200Y-47100D03*
X53400Y-50300D03*
X53400Y-49900D03*
X53366Y-54011D03*
X53366Y-54411D03*
X50800Y-50300D03*
X50800Y-49900D03*
X50766Y-54011D03*
X50766Y-54411D03*
X48200Y-50300D03*
X48200Y-49900D03*
X48166Y-54011D03*
X48166Y-54411D03*
G54D30*
X46016Y-44711D03*
X46416Y-44711D03*
X47200Y-50300D03*
X46800Y-50300D03*
X49800Y-50300D03*
X49400Y-50300D03*
X52400Y-50300D03*
X52000Y-50300D03*
G54D31*
X45159Y-48641D03*
X45513Y-48641D03*
G54D10*
G36*
X47816Y-54961D02*
X47816Y-53361D01*
X44016Y-53361D01*
X44016Y-54961D01*
X47816Y-54961D01*
X47816Y-54961D01*
G37*
G54D32*
X47816Y-54961D02*
X47816Y-53361D01*
X44016Y-53361D01*
X44016Y-54961D01*
X47816Y-54961D01*
G54D10*
G36*
X50416Y-54961D02*
X50416Y-53361D01*
X49016Y-53361D01*
X49016Y-54961D01*
X50416Y-54961D01*
X50416Y-54961D01*
G37*
G54D32*
X50416Y-54961D02*
X50416Y-53361D01*
X49016Y-53361D01*
X49016Y-54961D01*
X50416Y-54961D01*
G54D10*
G36*
X53016Y-54961D02*
X53016Y-53361D01*
X51616Y-53361D01*
X51616Y-54961D01*
X53016Y-54961D01*
X53016Y-54961D01*
G37*
G54D32*
X53016Y-54961D02*
X53016Y-53361D01*
X51616Y-53361D01*
X51616Y-54961D01*
X53016Y-54961D01*
M02*
